<svg xmlns="http://www.w3.org/2000/svg" width="1014" height="1323" viewBox="0 0 1014 1323"><defs><style>.a{opacity:0.482;}.a,.b,.c,.d,.e,.f,.g,.h,.i,.j,.m{fill:url(#a);}.c{opacity:0.854;}.d{opacity:0.473;}.e{opacity:0.488;}.f{opacity:0.302;}.g{opacity:0.426;}.h{opacity:0.386;}.i{opacity:0.209;}.j{opacity:0.492;}.k{fill:#88b7f3;}.l,.u,.v{fill:#bcdcea;}.l{opacity:0.397;}.m,.v{opacity:0.555;}.n{fill:#ebc7a6;}.o{fill:#191648;}.p{fill:#b1c4e0;}.q{fill:#d1e1f8;}.r{fill:#191847;}.s{fill:#c5cfd6;}.t{fill:#fff;}</style><linearGradient id="a" x1="0.5" x2="0.5" y2="1" gradientUnits="objectBoundingBox"><stop offset="0" stop-color="#0e49eb"/><stop offset="1" stop-color="#30dbce"/></linearGradient></defs><g transform="translate(-37 91)"><rect class="a" width="91" height="98" rx="37" transform="translate(949 724)"/><rect class="b" width="91" height="98" rx="37" transform="translate(86 880)"/><rect class="c" width="91" height="98" rx="37" transform="translate(635 93)"/><rect class="d" width="91" height="98" rx="37" transform="translate(751 609)"/><rect class="c" width="91" height="98" rx="37" transform="translate(751 903)"/><rect class="e" width="90" height="99" rx="37" transform="translate(651 680)"/><rect class="f" width="90" height="99" rx="37" transform="translate(651 974)"/><rect class="a" width="91" height="145" rx="37" transform="translate(949 837)"/><rect class="g" width="91" height="145" rx="37" transform="translate(86 993)"/><rect class="e" width="90" height="144" rx="37" transform="translate(651 794)"/><rect class="a" width="91" height="169" rx="37" transform="translate(949 540)"/><rect class="a" width="91" height="169" rx="37" transform="translate(960 116)"/><rect class="g" width="91" height="169" rx="37" transform="translate(86 696)"/><rect class="c" width="91" height="169" rx="37" transform="translate(635 -91)"/><rect class="h" width="91" height="169" rx="37" transform="translate(535 331)"/><rect class="b" width="65" height="142" rx="32.5" transform="translate(403 696) rotate(90)"/><rect class="g" width="65" height="143" rx="32.5" transform="translate(567 696) rotate(90)"/><rect class="b" width="40" height="230" rx="20" transform="translate(491 285) rotate(90)"/><rect class="b" width="25" height="230" rx="12.5" transform="translate(388 338) rotate(90)"/><rect class="i" width="24" height="126" rx="12" transform="translate(388 376) rotate(90)"/><rect class="i" width="25" height="106" rx="12.5" transform="translate(367 490) rotate(90)"/><rect class="f" width="24" height="105" rx="12" transform="translate(442 220) rotate(90)"/><rect class="f" width="24" height="105" rx="12" transform="translate(187 220) rotate(90)"/><rect class="j" width="24" height="91" rx="12" transform="translate(726 220) rotate(90)"/><rect class="f" width="24" height="106" rx="12" transform="translate(567 220) rotate(90)"/><rect class="f" width="24" height="106" rx="12" transform="translate(312 220) rotate(90)"/><rect class="k" width="25" height="106" rx="12.5" transform="translate(544 621) rotate(90)"/><rect class="i" width="25" height="453" rx="12.5" transform="translate(535 584) rotate(90)"/><rect class="l" width="25" height="163" rx="12.5" transform="translate(424 621) rotate(90)"/><rect class="m" width="91" height="145" rx="37" transform="translate(751 1016)"/><g transform="translate(278.99 216.465)"><g transform="translate(35.01 33.663)"><g transform="translate(0 0)"><g transform="matrix(0.966, -0.259, 0.259, 0.966, 70.07, -30.067)"><g transform="translate(24.693 44.438)"><path class="n" d="M0,120.145,13.6,56.764C6.016,47.863.882,36.952,1.739,24.729c2.472-35.221,51.508-27.473,61.045-9.7S71.19,77.9,58.863,81.079c-4.917,1.267-15.389-1.837-26.049-8.261l6.691,47.327Z" transform="translate(0 0)"/></g><path class="o" d="M71.874,40.109a51.564,51.564,0,0,0-16.531-1.826,28.426,28.426,0,0,0,2.013-14.37c-.59-4.735-2.706-8.767-4.663-12.992a17.774,17.774,0,0,0-3.449-5.374,11.778,11.778,0,0,0-5.579-3,14.931,14.931,0,0,0-6.427,0c-.934.2-1.773.624-2.689.861-.939.243-1.394-.344-2.075-.934A11.752,11.752,0,0,0,26.349.1a15.8,15.8,0,0,0-6.97.836,13.643,13.643,0,0,0-5.8,3.72,9.733,9.733,0,0,0-1.739,2.666c-.168.4-.2.645-.6.793-.374.137-.811.141-1.2.272a15.053,15.053,0,0,0-8.655,7.844C.37,18.385-.11,22.186.021,26.445S4,41.818,7.6,45.871a24.167,24.167,0,0,0,12.486,7.051,35.716,35.716,0,0,0-6.524,12.165,59.526,59.526,0,0,0-2.987,14.777,48.226,48.226,0,0,0,.742,14.568,15.788,15.788,0,0,0,7.06,10.279,33.723,33.723,0,0,0,5.435,2.552,35.777,35.777,0,0,0,5.6,1.795c3.639.752,7.831.623,10.634-2.273a19.963,19.963,0,0,0,2.858-3.631c.265-.459.425-.759.1-1.207a8.633,8.633,0,0,0-1.505-1.368,14.183,14.183,0,0,1-5.015-9.392c-.447-3.855.588-8.831,4.337-10.513,4.627-2.077,9.723.307,13.836,2.529,1.748-6.168,5.337-11.722,10.963-14.551,6.225-3.13,13.368-3.5,19.765-6.182a11.792,11.792,0,0,0,4.592-2.92A5.938,5.938,0,0,0,91.3,57.392c.269-1.035-.4-1.9-.915-2.711C87.645,50.4,77.272,41.755,71.874,40.109Z"/></g><g transform="translate(55.611 256.622)"><path class="p" d="M0,0,58.523,205.044l42.7,151.128h31.143L86.991,0Z" transform="translate(90.395 0)"/><path class="q" d="M71.861,0c-1.354,105.682-5.969,163.324-7.391,172.925S41.559,243.609,0,356.172H32.262q79.361-161.977,88.6-183.247C127.026,158.746,146.04,101.1,174.678,0Z" transform="translate(2.884)"/><g transform="translate(0 320.716)"><path class="r" d="M0,33.844,1.614,0h33.9c24.11,16.922,62.954,27.4,62.954,27.4v6.447H37.127L16.142,30.621v3.223Z" transform="translate(0 30.621)"/></g><g transform="translate(187.247 320.716)"><path class="r" d="M0,33.844,1.614,0h33.9c24.11,16.922,62.954,27.4,62.954,27.4v6.447H37.127L16.142,30.621v3.223Z" transform="translate(0 30.621)"/></g></g><g transform="matrix(0.985, -0.174, 0.174, 0.985, -24.617, 136.158)"><path class="n" d="M47.206,124.175c-2.189-3.274-4.642-6.547-11.5-4.461-12.2,3.714-22.276,12.134-34.364,2.122-1.486-1.231-2.738-5.255,1.985-7.6C15.1,108.393,32.376,97.7,35.062,93.763,40.557,85.7,72.337,0,72.337,0L98.43,3.783S56.418,94.79,53.384,100.043c-4.552,7.879.8,21.6,2.893,28.867a8.859,8.859,0,0,1-2.447.382C50.465,129.292,48.915,126.733,47.206,124.175ZM306.63,63.6,261.555,41.141l12.154-24.852L318.178,53.93q18.713,6.469,30.972,15.009c1.887,1.975,4.061,5.858-4.251,4.632s-17.109-2.141-18.461.625,3.466,6.522.866,10.2a1.091,1.091,0,0,1-.943.48Q322.345,84.876,306.63,63.6Z" transform="translate(0 114.806)"/><path class="s" d="M0,6.727,15.641,0C42.257,52.581,79.455,102.455,137.793,142.226l-11.434,24.368C76.05,142.64,28.845,124.743,6.771,84.125-.637,70.493.979,23.717,0,6.727Z" transform="matrix(0.996, 0.087, -0.087, 0.996, 181.98, 1.904)"/><path class="o" d="M0,159.288s69.471,7.354,109.363,0c3.295-.607,3.815-6.115,2.287-9.853C87.855,91.224,71.538,40.432,71.538,0,64.989,3.3,48.615.988,48.615.988,19.278,42.654,5.793,90.462,0,159.288Z" transform="translate(125.862 3.267)"/><path class="t" d="M33.283,317.884c3.164-66.017,27.543-144.963,52.8-212-18.636,18.511-40.4,49.54-57.987,101.2L0,199.882C28.629,76.716,112.5,13.2,128.781,1.857l.475-1.095h1.123C131.135.253,131.535,0,131.535,0l-.043.762h12.225c2.847,16.716,11.825,243.075,39.544,317.122Z" transform="translate(35.693)"/></g></g></g></g><rect class="b" width="26" height="284" rx="13" transform="translate(461 527) rotate(90)"/><rect class="b" width="24" height="157" rx="12" transform="translate(419 452) rotate(90)"/><rect class="b" width="24" height="91" rx="12" transform="translate(613 438) rotate(90)"/><rect class="b" width="24" height="91" rx="12" transform="translate(781 307) rotate(90)"/><rect class="b" width="24" height="91" rx="12" transform="translate(827 339) rotate(90)"/><rect class="b" width="24" height="91" rx="12" transform="translate(787 637) rotate(90)"/><rect class="b" width="24" height="91" rx="12" transform="translate(842 864) rotate(90)"/><rect class="b" width="24" height="282" rx="12" transform="translate(933 540) rotate(90)"/><rect class="u" width="24" height="30" rx="12" transform="translate(294 414) rotate(90)"/><rect class="u" width="24" height="30" rx="12" transform="translate(67 585) rotate(90)"/><rect class="v" width="90" height="144" rx="37" transform="translate(651 1088)"/></g></svg>