<?xml version="1.0" encoding="UTF-8" standalone="no"?>
<svg
   xmlns:dc="http://purl.org/dc/elements/1.1/"
   xmlns:cc="http://creativecommons.org/ns#"
   xmlns:rdf="http://www.w3.org/1999/02/22-rdf-syntax-ns#"
   xmlns:svg="http://www.w3.org/2000/svg"
   xmlns="http://www.w3.org/2000/svg"
   xmlns:sodipodi="http://sodipodi.sourceforge.net/DTD/sodipodi-0.dtd"
   xmlns:inkscape="http://www.inkscape.org/namespaces/inkscape"
   id="Warstwa_1"
   data-name="Warstwa 1"
   viewBox="0 0 330.50492 46.448033"
   version="1.1"
   sodipodi:docname="header_logo.svg"
   width="330.50491"
   height="46.448032"
   inkscape:version="0.92.3 (2405546, 2018-03-11)">
  <metadata
     id="metadata23">
    <rdf:RDF>
      <cc:Work
         rdf:about="">
        <dc:format>image/svg+xml</dc:format>
        <dc:type
           rdf:resource="http://purl.org/dc/dcmitype/StillImage" />
        <dc:title />
      </cc:Work>
    </rdf:RDF>
  </metadata>
  <sodipodi:namedview
     pagecolor="#ffffff"
     bordercolor="#666666"
     borderopacity="1"
     objecttolerance="10"
     gridtolerance="10"
     guidetolerance="10"
     inkscape:pageopacity="0"
     inkscape:pageshadow="2"
     inkscape:window-width="1920"
     inkscape:window-height="1017"
     id="namedview21"
     showgrid="false"
     inkscape:pagecheckerboard="true"
     inkscape:zoom="2.35012"
     inkscape:cx="60.089462"
     inkscape:cy="13.305408"
     inkscape:window-x="-8"
     inkscape:window-y="-8"
     inkscape:window-maximized="1"
     inkscape:current-layer="Warstwa_1" />
  <defs
     id="defs4">
    <style
       id="style2">.cls-1{fill:#fff;}.cls-2{fill:#d4291c;}</style>
  </defs>
  <path
     class="cls-1"
     d="m 42.005237,17.381067 v 0.679041 0.655215 0.631389 l 0.131043,2.692338 h -8.136578 l 4.086158,-5.885022 0.762432,-1.107909 0.452695,-0.71478 0.500345,-0.726694 0.428868,-0.71478 0.440781,-0.67904 0.381216,-0.702867 0.381216,-0.71478 0.381216,-0.726693 0.321651,-0.7147799 -0.08339,0.7147799 v 0.679041 0.679041 0.571824 0.571824 4.205289 z M 38.252642,5.3012856 H 38.062034 L 18.357932,32.129361 h 8.922837 l 4.16955,-5.9565 h 11.102917 l 0.381215,5.9565 h 8.45823 L 49.105385,5.3012856 H 38.252642"
     id="path6"
     inkscape:connector-curvature="0"
     style="fill:#ffffff;stroke-width:1.19130003" />
  <polygon
     class="cls-1"
     points="55.46,13.07 55.87,11.26 49.52,11.26 49.45,11.63 49.36,11.95 49.29,12.31 49.2,12.68 49.09,13.04 48.97,13.38 48.83,13.75 48.72,14.16 44.63,26.98 51.32,26.98 54.45,17.18 54.59,16.81 54.75,16.45 54.95,16.13 55.12,15.8 55.3,15.49 55.55,15.23 55.76,15.01 55.98,14.76 56.28,14.6 56.51,14.39 56.78,14.28 57.08,14.16 57.35,14.07 57.63,14 57.92,13.96 58.24,13.96 58.63,13.96 59,14.05 59.32,14.12 59.57,14.23 59.75,14.44 59.89,14.64 59.96,14.89 60,15.17 59.96,15.23 59.96,15.37 59.96,15.49 59.91,15.6 59.89,15.76 59.84,15.92 59.8,16.08 59.75,16.24 56.3,26.98 63.02,26.98 66.47,16.29 66.54,16.03 66.58,15.76 66.63,15.53 66.67,15.23 66.69,15.01 66.74,14.71 66.74,14.48 66.74,14.21 66.74,13.84 66.67,13.43 66.58,13.11 66.42,12.79 66.22,12.52 66.03,12.24 65.74,11.99 65.42,11.74 65.1,11.58 64.71,11.4 64.25,11.26 63.77,11.15 63.25,11.03 62.72,10.99 62.13,10.94 61.49,10.92 60.53,10.94 59.64,11.08 58.79,11.19 58.04,11.42 57.67,11.56 57.35,11.72 56.99,11.9 56.67,12.11 56.35,12.31 56.07,12.56 55.78,12.79 "
     id="polygon8"
     style="fill:#ffffff"
     transform="scale(1.1913)" />
  <polygon
     class="cls-1"
     points="115.78,4.45 113.5,4.45 109.11,4.45 108.04,7.93 113.5,7.93 114.73,7.93 "
     id="polygon10"
     style="fill:#ffffff"
     transform="scale(1.1913)" />
  <polygon
     class="cls-1"
     points="136.09,12.27 135.72,12.52 135.4,12.75 135.03,13.04 134.71,13.36 134.65,13.06 134.53,12.79 134.35,12.56 134.19,12.31 134.01,12.11 133.75,11.9 133.53,11.72 133.23,11.56 132.91,11.4 132.59,11.26 132.22,11.19 131.84,11.08 131.43,11.03 130.99,10.94 130.56,10.94 130.06,10.92 129.1,10.94 128.25,11.08 127.41,11.24 126.65,11.47 126.29,11.58 125.92,11.74 125.6,11.9 125.28,12.11 124.96,12.31 124.64,12.56 124.37,12.79 124.09,13.06 124.53,11.26 118.22,11.26 118.13,11.67 118.06,12.06 117.97,12.43 117.86,12.79 117.79,13.16 117.65,13.47 117.58,13.84 117.47,14.16 113.49,26.54 113.36,26.98 113.49,26.98 119.98,26.98 123.09,17.18 123.2,16.81 123.36,16.45 123.52,16.08 123.68,15.76 123.89,15.49 124.05,15.21 124.28,14.96 124.48,14.76 124.73,14.55 124.96,14.39 125.21,14.28 125.44,14.16 125.74,14.07 126.01,14 126.29,13.96 126.58,13.96 126.97,13.96 127.29,14.05 127.54,14.12 127.77,14.23 127.93,14.44 128.07,14.64 128.14,14.89 128.18,15.17 128.18,15.28 128.14,15.37 128.14,15.49 128.14,15.65 128.09,15.76 128.07,15.92 128.02,16.08 127.93,16.24 124.53,26.98 131.04,26.98 134.19,17.18 134.35,16.81 134.49,16.45 134.65,16.08 134.81,15.76 135.01,15.49 135.19,15.21 135.4,14.96 135.6,14.76 135.83,14.55 136.09,14.39 136.34,14.28 136.56,14.16 136.84,14.07 137.13,14 137.41,13.96 137.68,13.96 138.05,13.96 138.37,14.05 138.67,14.12 138.85,14.23 139.06,14.44 139.17,14.64 139.26,14.89 139.26,15.17 139.26,15.28 139.26,15.37 139.26,15.49 139.21,15.65 139.21,15.76 139.17,15.92 139.15,16.08 139.1,16.24 135.65,26.98 142.18,26.98 145.56,16.29 145.63,16.01 145.72,15.71 145.79,15.49 145.84,15.21 145.88,14.96 145.93,14.69 145.93,14.44 145.95,14.21 145.93,13.84 145.88,13.47 145.77,13.11 145.63,12.79 145.47,12.52 145.24,12.24 144.99,11.99 144.72,11.79 144.4,11.58 144.03,11.4 143.67,11.26 143.23,11.15 142.8,11.08 142.28,10.99 141.75,10.94 141.18,10.92 140.22,10.94 139.31,11.08 138.85,11.15 138.46,11.26 138,11.4 137.61,11.51 137.2,11.67 136.84,11.88 136.45,12.06 "
     id="polygon12"
     style="fill:#ffffff"
     transform="scale(1.1913)" />
  <polygon
     class="cls-1"
     points="113.5,11.26 106.94,11.26 103.58,21.75 101.89,26.98 103.58,26.98 108.58,26.98 113.5,11.7 113.65,11.26 "
     id="polygon14"
     style="fill:#ffffff"
     transform="scale(1.1913)" />
  <polygon
     class="cls-1"
     points="75.76,22.2 75.83,21.61 75.88,20.99 75.92,20.49 75.94,19.96 75.99,19.51 75.99,19.07 76.11,11.26 69.69,11.26 70.56,26.98 77.73,26.98 84.26,18.02 84.46,17.7 84.67,17.38 84.88,17.02 85.1,16.61 85.31,16.17 85.58,15.69 85.83,15.12 86.06,14.65 86.04,14.76 86.04,14.91 86.04,15.08 86.04,15.23 86,15.44 86,15.65 86,15.88 86.2,26.98 93.65,26.98 103.58,13.55 105.25,11.26 103.58,11.26 98.28,11.26 93.26,18.96 93.01,19.32 92.78,19.76 92.48,20.24 92.21,20.81 91.89,21.45 91.57,22.13 91.2,22.89 90.84,23.73 90.84,21.56 90.88,11.26 83.58,11.26 77.43,20.24 77.2,20.65 76.93,21.04 76.68,21.45 76.45,21.84 76.24,22.25 75.99,22.68 75.79,23.14 75.6,23.57 75.67,22.89 "
     id="polygon16"
     style="fill:#ffffff"
     transform="scale(1.1913)" />
  <polygon
     class="cls-2"
     points="142.64,30.08 8.79,30.08 32.39,0 0,33.71 "
     id="polygon18"
     style="fill:#d4291c"
     transform="scale(1.1913)" />
  <path
     inkscape:connector-curvature="0"
     class="cls-1"
     d="m 317.5085,27.988034 a 15.9,15.9 0 0 0 4.33,-0.46 1.69,1.69 0 0 0 1.33,-1.7 1.62,1.62 0 0 0 -1.15,-1.58 29.67,29.67 0 0 0 -4.51,-0.21 v -4.05 h 0.09 a 15.26,15.26 0 0 1 3.52,0.28 3.7,3.7 0 0 1 1.89,1.2 h 0.31 v -1 c 0,-1.51 -0.28,-2.44 -0.83,-2.81 -0.55,-0.37 -1.92,-0.59 -4,-0.59 a 9,9 0 0 0 -0.93,0 v -4.569999 c 0.62,0 1.3,0 2,0 a 35.82,35.82 0 0 1 6.4,0.37 5.41,5.41 0 0 1 2.9,1.539999 4.65,4.65 0 0 1 1.3,2.26 17.42,17.42 0 0 1 0.34,3.93 v 11.47 h -6.83 v -2.6 h -0.34 a 4.88,4.88 0 0 1 -2.5,2.38 8.14,8.14 0 0 1 -2.54,0.56 6.79,6.79 0 0 0 -0.71,0.06 z m -0.15,-3.95 c -2.39,0 -3.9,0.12 -4.46,0.43 a 1.62,1.62 0 0 0 -1,1.55 1.55,1.55 0 0 0 1,1.57 12.06,12.06 0 0 0 3.9,0.4 h 0.74 v 4.49 c -1.08,0.06 -2.57,0.09 -4.48,0.09 a 20,20 0 0 1 -4.42,-0.37 5.65,5.65 0 0 1 -2.51,-1.24 c -0.92,-0.89 -1.36,-2.32 -1.36,-4.33 0,-2.19 0.53,-3.8 1.61,-4.79 a 6.78,6.78 0 0 1 3.43,-1.51 59,59 0 0 1 7.73,-0.34 v 4.05 z m 0.15,-11.499999 v 4.569999 a 15.71,15.71 0 0 0 -3.83,0.28 1.75,1.75 0 0 0 -1.08,1.61 h -7.08 a 6.74,6.74 0 0 1 0.92,-3.37 6.57,6.57 0 0 1 4,-2.479999 36.07,36.07 0 0 1 7.07,-0.61 z"
     id="path6-1"
     style="fill:#ffffff" />
  <path
     inkscape:connector-curvature="0"
     class="cls-1"
     d="m 267.7985,17.888034 h -0.09 v -5.349999 0 a 51.74,51.74 0 0 1 7.26,0.37 8.68,8.68 0 0 1 3.77,1.359999 5.09,5.09 0 0 1 1.92,2.69 19.27,19.27 0 0 1 0.5,5.22 c 0,1.77 0,3.1 -0.13,4 a 10.38,10.38 0 0 1 -0.56,2.38 5.39,5.39 0 0 1 -4.14,3.4 42.62,42.62 0 0 1 -8.62,0.62 v 0 -5.38 h 0.06 q 4,0 5.19,-0.84 c 0.75,-0.58 1.12,-1.85 1.12,-3.86 a 8.56,8.56 0 0 0 -0.34,-2.75 2.41,2.41 0 0 0 -1.3,-1.27 13.39,13.39 0 0 0 -4.64,-0.58 m -0.09,0 a 13.2,13.2 0 0 0 -4.7,0.55 2.45,2.45 0 0 0 -1.27,1.39 8.27,8.27 0 0 0 -0.37,2.85 7.76,7.76 0 0 0 0.31,2.66 2.24,2.24 0 0 0 1.21,1.23 13.11,13.11 0 0 0 4.82,0.62 v 5.38 a 48,48 0 0 1 -7.58,-0.4 7.22,7.22 0 0 1 -3.67,-1.52 5,5 0 0 1 -1.77,-2.84 25.69,25.69 0 0 1 -0.46,-5.88 20.24,20.24 0 0 1 0.22,-3.58 6.05,6.05 0 0 1 0.71,-2.26 5.52,5.52 0 0 1 3.64,-2.809999 36.44,36.44 0 0 1 8.91,-0.74 z"
     id="path8"
     style="fill:#ffffff" />
  <path
     inkscape:connector-curvature="0"
     class="cls-1"
     d="m 210.1185,13.028035 h 6.7 v 2.849999 h 0.34 c 1.05,-2.229999 3.62,-3.339999 7.73,-3.339999 a 13.45,13.45 0 0 1 5.47,0.92 6.84,6.84 0 0 1 3.19,3.059999 5.7,5.7 0 0 1 2.78,-3.059999 12.91,12.91 0 0 1 5.44,-0.92 17.36,17.36 0 0 1 4.82,0.55 7.14,7.14 0 0 1 3.09,1.889999 6.21,6.21 0 0 1 1.61,2.88 23.66,23.66 0 0 1 0.41,5.31 v 8.91 h -7.12 v -8.91 a 19.84,19.84 0 0 0 -0.15,-2.9 2.77,2.77 0 0 0 -0.65,-1.33 c -0.71,-0.68 -2,-1.05 -4,-1.05 -2,0 -3.49,0.4 -4.23,1.2 a 3.75,3.75 0 0 0 -0.84,1.73 18.3,18.3 0 0 0 -0.22,3.37 v 7.89 h -7.1 v -8.91 a 26.56,26.56 0 0 0 -0.13,-3 2.44,2.44 0 0 0 -0.62,-1.24 c -0.68,-0.71 -2,-1.08 -3.95,-1.08 -2.14,0 -3.62,0.4 -4.36,1.17 a 3,3 0 0 0 -0.84,1.7 18.65,18.65 0 0 0 -0.24,3.43 v 7.89 h -7.11 z"
     id="path10"
     style="fill:#ffffff" />
  <path
     inkscape:connector-curvature="0"
     class="cls-2"
     d="m 294.2885,7.6180344 a 3.62,3.62 0 1 1 -3.61,3.6200006 3.61,3.61 0 0 1 3.61,-3.6200006"
     id="path12"
     style="fill:#d4291c" />
  <path
     inkscape:connector-curvature="0"
     class="cls-1"
     d="m 295.6485,33.098034 c -4.6,7.54 -7.32,10.51 -12.24,13.35 4.48,-4.7 7.2,-9.28 7.45,-14 l 0.16,-1.43 a 27.85,27.85 0 0 0 -5,-15.36 l -1.58,-2.099999 a 38.65,38.65 0 0 0 -11.53,-9.3700006 c 8.91,2.38 18.77,8.6900006 22.26,17.6199996 3.34,-4.54 4.42,-9.999999 4.36,-15.5199996 a 28,28 0 0 1 0.65,15.3999996 25.39,25.39 0 0 1 -0.62,2.47 35.85,35.85 0 0 1 -3,7.24 z"
     id="path14"
     style="fill:#ffffff" />
  <path
     inkscape:connector-curvature="0"
     class="cls-2"
     d="m 209.6485,37.988034 h 1.45 a 0.28,0.28 0 0 0 0.18,0.26 1.57,1.57 0 0 0 0.57,0.08 h 1 a 0.88,0.88 0 0 0 0.42,-0.07 0.26,0.26 0 0 0 0,-0.44 1,1 0 0 0 -0.43,-0.09 h -1.35 a 2.77,2.77 0 0 1 -1.42,-0.26 1,1 0 0 1 -0.39,-0.88 1,1 0 0 1 0.42,-0.94 2.68,2.68 0 0 1 1.43,-0.29 h 1.51 a 1.8,1.8 0 0 1 1.1,0.27 1,1 0 0 1 0.37,0.85 h -1.37 a 0.35,0.35 0 0 0 -0.22,-0.16 1.42,1.42 0 0 0 -0.46,-0.06 h -1 a 0.87,0.87 0 0 0 -0.39,0.06 0.2,0.2 0 0 0 -0.11,0.18 0.21,0.21 0 0 0 0.12,0.2 2.12,2.12 0 0 0 0.52,0.08 h 1.67 a 1.74,1.74 0 0 1 1.08,0.3 1.15,1.15 0 0 1 0.34,0.9 1.17,1.17 0 0 1 -0.38,1 2.22,2.22 0 0 1 -1.33,0.29 h -1.39 a 3.17,3.17 0 0 1 -1.59,-0.27 1.11,1.11 0 0 1 -0.43,-1"
     id="path16"
     style="fill:#d4291c" />
  <path
     inkscape:connector-curvature="0"
     class="cls-2"
     d="m 217.0385,34.928034 h -1.36 v -1.11 h 1.36 z m 0,4.26 h -1.36 v -3.8 h 1.36 z"
     id="path18"
     style="fill:#d4291c" />
  <path
     inkscape:connector-curvature="0"
     class="cls-2"
     d="m 221.4785,37.928034 h 1.28 v 0.06 a 1.11,1.11 0 0 1 -0.4,1 2.44,2.44 0 0 1 -1.35,0.29 h -1.27 a 2.06,2.06 0 0 1 -1.31,-0.36 1.24,1.24 0 0 1 -0.46,-1 v -1 a 1.35,1.35 0 0 1 0.46,-1.09 2,2 0 0 1 1.3,-0.38 h 1.31 a 2,2 0 0 1 1.31,0.38 1.33,1.33 0 0 1 0.45,1.09 v 0.82 h -3.43 a 0.11,0.11 0 0 1 0,0.05 v 0 a 0.54,0.54 0 0 0 0.19,0.47 1.13,1.13 0 0 0 0.63,0.14 h 0.57 a 1.19,1.19 0 0 0 0.58,-0.09 0.44,0.44 0 0 0 0.18,-0.32 m -2.14,-1.14 h 2.11 v 0 a 0.42,0.42 0 0 0 -0.18,-0.38 1.18,1.18 0 0 0 -0.59,-0.11 h -0.57 a 1.25,1.25 0 0 0 -0.6,0.11 0.45,0.45 0 0 0 -0.17,0.38 z"
     id="path20"
     style="fill:#d4291c" />
  <path
     inkscape:connector-curvature="0"
     class="cls-2"
     d="m 225.3785,39.238034 a 2.35,2.35 0 0 1 -1.39,-0.32 1.26,1.26 0 0 1 -0.43,-1.07 v -1 a 1.4,1.4 0 0 1 0.4,-1.14 2.29,2.29 0 0 1 1.42,-0.33 h 1.29 a 2.53,2.53 0 0 1 1.39,0.31 1.14,1.14 0 0 1 0.44,1 0.76,0.76 0 0 1 0,0.15 0.88,0.88 0 0 1 0,0.16 h -1.29 v 0 a 0.52,0.52 0 0 0 -0.17,-0.43 1,1 0 0 0 -0.58,-0.13 h -0.67 a 1,1 0 0 0 -0.65,0.15 0.67,0.67 0 0 0 -0.18,0.54 v 0.49 a 0.63,0.63 0 0 0 0.19,0.51 1,1 0 0 0 0.64,0.16 h 0.59 a 1.24,1.24 0 0 0 0.68,-0.13 0.6,0.6 0 0 0 0.16,-0.49 h 1.36 v 0.09 a 0.53,0.53 0 0 1 0,0.14 1.28,1.28 0 0 1 -0.43,1.09 2.47,2.47 0 0 1 -1.44,0.32 z m -0.08,-4.29 1,-1 h 1.44 l -1.71,1 z"
     id="path22"
     style="fill:#d4291c" />
  <path
     inkscape:connector-curvature="0"
     class="cls-2"
     d="m 232.8685,37.988034 h 1.45 a 0.28,0.28 0 0 0 0.18,0.26 1.51,1.51 0 0 0 0.56,0.08 h 1 a 0.93,0.93 0 0 0 0.43,-0.07 0.23,0.23 0 0 0 0.12,-0.22 0.25,0.25 0 0 0 -0.13,-0.22 1,1 0 0 0 -0.43,-0.09 h -1.35 a 2.77,2.77 0 0 1 -1.42,-0.26 1,1 0 0 1 -0.4,-0.88 1.05,1.05 0 0 1 0.43,-0.94 2.66,2.66 0 0 1 1.43,-0.29 h 1.55 a 1.82,1.82 0 0 1 1.1,0.27 1,1 0 0 1 0.37,0.85 h -1.37 a 0.39,0.39 0 0 0 -0.22,-0.16 1.42,1.42 0 0 0 -0.46,-0.06 h -1 a 0.85,0.85 0 0 0 -0.38,0.06 0.2,0.2 0 0 0 -0.11,0.18 0.22,0.22 0 0 0 0.11,0.2 2.34,2.34 0 0 0 0.53,0.08 h 1.67 a 1.69,1.69 0 0 1 1.07,0.3 1.11,1.11 0 0 1 0.34,0.9 1.17,1.17 0 0 1 -0.37,1 2.22,2.22 0 0 1 -1.33,0.29 h -1.39 a 3.17,3.17 0 0 1 -1.59,-0.27 1.11,1.11 0 0 1 -0.43,-1"
     id="path24"
     style="fill:#d4291c" />
  <path
     inkscape:connector-curvature="0"
     class="cls-2"
     d="m 239.2085,36.378034 h -0.77 v -1 h 0.77 v -0.91 h 1.37 v 0.91 h 2.14 v 1 h -2.14 v 1.3 a 0.59,0.59 0 0 0 0.12,0.42 0.57,0.57 0 0 0 0.41,0.12 0.63,0.63 0 0 0 0.46,-0.13 0.54,0.54 0 0 0 0.13,-0.42 1.72,1.72 0 0 0 0,-0.2 v 0 h 1.21 c 0,0 0,0.08 0,0.13 v 0.2 a 1.32,1.32 0 0 1 -0.45,1.12 3.39,3.39 0 0 1 -2.85,0 1.19,1.19 0 0 1 -0.4,-1 z"
     id="path26"
     style="fill:#d4291c" />
  <path
     inkscape:connector-curvature="0"
     class="cls-2"
     d="m 248.3585,39.188034 h -1.32 v -0.46 a 1.17,1.17 0 0 1 -0.64,0.39 4.41,4.41 0 0 1 -1.14,0.12 2.69,2.69 0 0 1 -1.43,-0.27 1.16,1.16 0 0 1 -0.39,-1 1.09,1.09 0 0 1 0.4,-1 3,3 0 0 1 1.52,-0.27 5.86,5.86 0 0 1 1,0.08 1.82,1.82 0 0 1 0.64,0.25 v -0.41 a 0.4,0.4 0 0 0 -0.14,-0.31 0.63,0.63 0 0 0 -0.39,-0.1 h -1.12 a 0.47,0.47 0 0 0 -0.3,0.07 0.24,0.24 0 0 0 -0.1,0.22 h -1.37 v 0 a 0.92,0.92 0 0 1 0.44,-0.86 3,3 0 0 1 1.48,-0.27 h 1.34 a 1.76,1.76 0 0 1 1.15,0.31 1.15,1.15 0 0 1 0.38,0.95 z m -2.07,-1.64 h -0.83 a 1.12,1.12 0 0 0 -0.53,0.09 0.32,0.32 0 0 0 -0.15,0.3 0.29,0.29 0 0 0 0.14,0.28 1.11,1.11 0 0 0 0.54,0.08 h 0.83 a 1.3,1.3 0 0 0 0.53,-0.08 0.33,0.33 0 0 0 0.15,-0.31 0.3,0.3 0 0 0 -0.13,-0.28 1.34,1.34 0 0 0 -0.55,-0.08 z"
     id="path28"
     style="fill:#d4291c" />
  <path
     inkscape:connector-curvature="0"
     class="cls-2"
     d="m 250.9385,39.238034 a 2.37,2.37 0 0 1 -1.39,-0.32 1.28,1.28 0 0 1 -0.42,-1.07 v -1 a 1.37,1.37 0 0 1 0.4,-1.14 2.28,2.28 0 0 1 1.41,-0.33 h 1.3 a 2.47,2.47 0 0 1 1.38,0.31 1.12,1.12 0 0 1 0.44,1 v 0.15 c 0,0.05 0,0.11 0,0.16 h -1.29 v 0 a 0.5,0.5 0 0 0 -0.18,-0.43 1,1 0 0 0 -0.58,-0.13 h -0.67 a 1.05,1.05 0 0 0 -0.65,0.15 0.71,0.71 0 0 0 -0.17,0.54 v 0.49 a 0.6,0.6 0 0 0 0.19,0.51 0.94,0.94 0 0 0 0.63,0.16 h 0.6 a 1.2,1.2 0 0 0 0.67,-0.13 0.6,0.6 0 0 0 0.16,-0.49 h 1.36 a 0.28,0.28 0 0 1 0,0.09 v 0.14 a 1.3,1.3 0 0 1 -0.42,1.09 2.51,2.51 0 0 1 -1.44,0.32 z"
     id="path30"
     style="fill:#d4291c" />
  <path
     inkscape:connector-curvature="0"
     class="cls-2"
     d="m 256.4885,39.398034 a 1.06,1.06 0 0 1 -0.29,0.85 1.77,1.77 0 0 1 -1.05,0.23 h -0.25 -0.31 v -1 h 0.2 a 0.3,0.3 0 0 0 0.25,-0.1 0.5,0.5 0 0 0 0.08,-0.31 v -3.7 h 1.37 z m 0,-4.47 h -1.37 v -1.11 h 1.37 z"
     id="path32"
     style="fill:#d4291c" />
  <path
     inkscape:connector-curvature="0"
     class="cls-2"
     d="m 258.9685,34.928034 h -1.37 v -1.11 h 1.37 z m 0,4.26 h -1.37 v -3.8 h 1.37 z"
     id="path34"
     style="fill:#d4291c" />
  <path
     inkscape:connector-curvature="0"
     class="cls-2"
     d="m 265.0385,38.508034 v 2 h -1.37 v -5.09 h 1.37 v 0.7 a 0.69,0.69 0 0 1 0.42,-0.58 3.49,3.49 0 0 1 1.27,-0.17 3.08,3.08 0 0 1 1.56,0.29 1.09,1.09 0 0 1 0.44,1 v 1.26 a 1.11,1.11 0 0 1 -0.46,1 2.83,2.83 0 0 1 -1.52,0.31 3.64,3.64 0 0 1 -1.24,-0.15 0.76,0.76 0 0 1 -0.47,-0.52 m 0.84,-2.12 a 1.14,1.14 0 0 0 -0.67,0.15 0.56,0.56 0 0 0 -0.19,0.49 v 0.45 a 0.65,0.65 0 0 0 0.18,0.53 1.23,1.23 0 0 0 0.68,0.14 h 0.62 a 1.14,1.14 0 0 0 0.67,-0.15 0.58,0.58 0 0 0 0.2,-0.49 v -0.48 a 0.57,0.57 0 0 0 -0.2,-0.49 1.1,1.1 0 0 0 -0.67,-0.15 z"
     id="path36"
     style="fill:#d4291c" />
  <path
     inkscape:connector-curvature="0"
     class="cls-2"
     d="m 274.3385,39.188034 h -1.37 v -0.46 a 1.17,1.17 0 0 1 -0.64,0.39 4.33,4.33 0 0 1 -1.13,0.12 2.71,2.71 0 0 1 -1.44,-0.27 1.16,1.16 0 0 1 -0.39,-1 1.1,1.1 0 0 1 0.41,-1 2.91,2.91 0 0 1 1.51,-0.27 5.78,5.78 0 0 1 1,0.08 1.82,1.82 0 0 1 0.64,0.25 v -0.41 a 0.39,0.39 0 0 0 -0.13,-0.31 0.68,0.68 0 0 0 -0.4,-0.1 h -1.12 a 0.51,0.51 0 0 0 -0.3,0.07 0.25,0.25 0 0 0 -0.09,0.22 h -1.38 v 0 a 0.91,0.91 0 0 1 0.45,-0.86 3,3 0 0 1 1.48,-0.27 h 1.34 a 1.77,1.77 0 0 1 1.15,0.31 1.15,1.15 0 0 1 0.37,0.95 z m -2.06,-1.64 h -0.84 a 1.15,1.15 0 0 0 -0.53,0.09 0.32,0.32 0 0 0 -0.15,0.3 0.29,0.29 0 0 0 0.14,0.28 1.11,1.11 0 0 0 0.54,0.08 h 0.84 a 1.24,1.24 0 0 0 0.52,-0.08 0.32,0.32 0 0 0 0.16,-0.31 0.3,0.3 0 0 0 -0.14,-0.28 1.25,1.25 0 0 0 -0.54,-0.08 z"
     id="path38"
     style="fill:#d4291c" />
  <rect
     class="cls-2"
     x="275.28851"
     y="33.818035"
     width="1.37"
     height="5.3699999"
     id="rect40"
     style="fill:#d4291c" />
  <path
     inkscape:connector-curvature="0"
     class="cls-2"
     d="m 279.1685,34.928034 h -1.37 v -1.11 h 1.37 z m 0,4.26 h -1.37 v -3.8 h 1.37 z"
     id="path42"
     style="fill:#d4291c" />
  <polygon
     transform="translate(209.6485,4.1880344)"
     class="cls-2"
     points="76.68,31.2 78.14,31.2 76.66,35 74.89,35 74.14,32.89 73.35,35 71.59,35 70.15,31.2 71.66,31.2 72.55,33.89 73.54,31.2 74.77,31.2 75.72,33.89 "
     id="polygon44"
     style="fill:#d4291c" />
</svg>
