<svg id="Warstwa_1" data-name="Warstwa 1" xmlns="http://www.w3.org/2000/svg" viewBox="0 0 120.78 42.26"><defs><style>.cls-1{fill:#fff;}.cls-2{fill:#d4291c;}</style></defs><path class="cls-1" d="M1209.47,152.67a15.9,15.9,0,0,0,4.33-.46,1.69,1.69,0,0,0,1.33-1.7,1.62,1.62,0,0,0-1.15-1.58,29.67,29.67,0,0,0-4.51-.21v-4.05h.09a15.26,15.26,0,0,1,3.52.28,3.7,3.7,0,0,1,1.89,1.2h.31v-1c0-1.51-.28-2.44-.83-2.81s-1.92-.59-4-.59a9,9,0,0,0-.93,0v-4.57c.62,0,1.3,0,2,0a35.82,35.82,0,0,1,6.4.37,5.41,5.41,0,0,1,2.9,1.54,4.65,4.65,0,0,1,1.3,2.26,17.42,17.42,0,0,1,.34,3.93v11.47h-6.83v-2.6h-.34a4.88,4.88,0,0,1-2.5,2.38,8.14,8.14,0,0,1-2.54.56,6.79,6.79,0,0,0-.71.06Zm-.15-3.95c-2.39,0-3.9.12-4.46.43a1.62,1.62,0,0,0-1,1.55,1.55,1.55,0,0,0,1,1.57,12.06,12.06,0,0,0,3.9.4h.74v4.49c-1.08.06-2.57.09-4.48.09a20,20,0,0,1-4.42-.37,5.65,5.65,0,0,1-2.51-1.24c-.92-.89-1.36-2.32-1.36-4.33,0-2.19.53-3.8,1.61-4.79a6.78,6.78,0,0,1,3.43-1.51,59,59,0,0,1,7.73-.34v4.05Zm.15-11.5v4.57a15.71,15.71,0,0,0-3.83.28,1.75,1.75,0,0,0-1.08,1.61h-7.08a6.74,6.74,0,0,1,.92-3.37,6.57,6.57,0,0,1,4-2.48A36.07,36.07,0,0,1,1209.47,137.22Z" transform="translate(-1101.61 -128.87)"/><path class="cls-1" d="M1159.76,142.57h-.09v-5.35h0a51.74,51.74,0,0,1,7.26.37,8.68,8.68,0,0,1,3.77,1.36,5.09,5.09,0,0,1,1.92,2.69,19.27,19.27,0,0,1,.5,5.22c0,1.77,0,3.1-.13,4a10.38,10.38,0,0,1-.56,2.38,5.39,5.39,0,0,1-4.14,3.4,42.62,42.62,0,0,1-8.62.62h0v-5.38h.06q4,0,5.19-.84c.75-.58,1.12-1.85,1.12-3.86a8.56,8.56,0,0,0-.34-2.75,2.41,2.41,0,0,0-1.3-1.27,13.39,13.39,0,0,0-4.64-.58m-.09,0a13.2,13.2,0,0,0-4.7.55,2.45,2.45,0,0,0-1.27,1.39,8.27,8.27,0,0,0-.37,2.85,7.76,7.76,0,0,0,.31,2.66,2.24,2.24,0,0,0,1.21,1.23,13.11,13.11,0,0,0,4.82.62v5.38a48,48,0,0,1-7.58-.4,7.22,7.22,0,0,1-3.67-1.52,5,5,0,0,1-1.77-2.84,25.69,25.69,0,0,1-.46-5.88,20.24,20.24,0,0,1,.22-3.58,6.05,6.05,0,0,1,.71-2.26,5.52,5.52,0,0,1,3.64-2.81,36.44,36.44,0,0,1,8.91-.74Z" transform="translate(-1101.61 -128.87)"/><path class="cls-1" d="M1102.08,137.71h6.7v2.85h.34c1.05-2.23,3.62-3.34,7.73-3.34a13.45,13.45,0,0,1,5.47.92,6.84,6.84,0,0,1,3.19,3.06,5.7,5.7,0,0,1,2.78-3.06,12.91,12.91,0,0,1,5.44-.92,17.36,17.36,0,0,1,4.82.55,7.14,7.14,0,0,1,3.09,1.89,6.21,6.21,0,0,1,1.61,2.88,23.66,23.66,0,0,1,.41,5.31v8.91h-7.12v-8.91a19.84,19.84,0,0,0-.15-2.9,2.77,2.77,0,0,0-.65-1.33c-.71-.68-2-1.05-4-1.05s-3.49.4-4.23,1.2a3.75,3.75,0,0,0-.84,1.73,18.3,18.3,0,0,0-.22,3.37v7.89h-7.1v-8.91a26.56,26.56,0,0,0-.13-3,2.44,2.44,0,0,0-.62-1.24c-.68-.71-2-1.08-3.95-1.08-2.14,0-3.62.4-4.36,1.17a3,3,0,0,0-.84,1.7,18.65,18.65,0,0,0-.24,3.43v7.89h-7.11Z" transform="translate(-1101.61 -128.87)"/><path class="cls-2" d="M1186.25,132.3a3.62,3.62,0,1,1-3.61,3.62,3.61,3.61,0,0,1,3.61-3.62" transform="translate(-1101.61 -128.87)"/><path class="cls-1" d="M1187.61,157.78c-4.6,7.54-7.32,10.51-12.24,13.35,4.48-4.7,7.2-9.28,7.45-14l.16-1.43a27.85,27.85,0,0,0-5-15.36l-1.58-2.1a38.65,38.65,0,0,0-11.53-9.37c8.91,2.38,18.77,8.69,22.26,17.62,3.34-4.54,4.42-10,4.36-15.52a28,28,0,0,1,.65,15.4,25.39,25.39,0,0,1-.62,2.47,35.85,35.85,0,0,1-3,7.24Z" transform="translate(-1101.61 -128.87)"/><path class="cls-2" d="M1101.61,162.67h1.45a.28.28,0,0,0,.18.26,1.57,1.57,0,0,0,.57.08h1a.88.88,0,0,0,.42-.07.26.26,0,0,0,0-.44,1,1,0,0,0-.43-.09l-1.35,0a2.77,2.77,0,0,1-1.42-.26,1,1,0,0,1-.39-.88,1,1,0,0,1,.42-.94,2.68,2.68,0,0,1,1.43-.29H1105a1.8,1.8,0,0,1,1.1.27,1,1,0,0,1,.37.85h-1.37a.35.35,0,0,0-.22-.16,1.42,1.42,0,0,0-.46-.06h-1a.87.87,0,0,0-.39.06.2.2,0,0,0-.11.18.21.21,0,0,0,.12.2,2.12,2.12,0,0,0,.52.08h1.67a1.74,1.74,0,0,1,1.08.3,1.15,1.15,0,0,1,.34.9,1.17,1.17,0,0,1-.38,1,2.22,2.22,0,0,1-1.33.29h-1.39a3.17,3.17,0,0,1-1.59-.27,1.11,1.11,0,0,1-.43-1" transform="translate(-1101.61 -128.87)"/><path class="cls-2" d="M1109,159.61h-1.36V158.5H1109Zm0,4.26h-1.36v-3.8H1109Z" transform="translate(-1101.61 -128.87)"/><path class="cls-2" d="M1113.44,162.61h1.28v.06a1.11,1.11,0,0,1-.4,1,2.44,2.44,0,0,1-1.35.29h-1.27a2.06,2.06,0,0,1-1.31-.36,1.24,1.24,0,0,1-.46-1v-1a1.35,1.35,0,0,1,.46-1.09,2,2,0,0,1,1.3-.38H1113a2,2,0,0,1,1.31.38,1.33,1.33,0,0,1,.45,1.09v.82h-3.43a.11.11,0,0,1,0,.05v0a.54.54,0,0,0,.19.47,1.13,1.13,0,0,0,.63.14h.57a1.19,1.19,0,0,0,.58-.09.44.44,0,0,0,.18-.32m-2.14-1.14h2.11v0a.42.42,0,0,0-.18-.38,1.18,1.18,0,0,0-.59-.11h-.57a1.25,1.25,0,0,0-.6.11.45.45,0,0,0-.17.38Z" transform="translate(-1101.61 -128.87)"/><path class="cls-2" d="M1117.34,163.92a2.35,2.35,0,0,1-1.39-.32,1.26,1.26,0,0,1-.43-1.07v-1a1.4,1.4,0,0,1,.4-1.14,2.29,2.29,0,0,1,1.42-.33h1.29a2.53,2.53,0,0,1,1.39.31,1.14,1.14,0,0,1,.44,1,.76.76,0,0,1,0,.15.88.88,0,0,1,0,.16h-1.29v0a.52.52,0,0,0-.17-.43,1,1,0,0,0-.58-.13h-.67a1,1,0,0,0-.65.15.67.67,0,0,0-.18.54v.49a.63.63,0,0,0,.19.51,1,1,0,0,0,.64.16h.59a1.24,1.24,0,0,0,.68-.13.6.6,0,0,0,.16-.49h1.36v.09a.53.53,0,0,1,0,.14,1.28,1.28,0,0,1-.43,1.09,2.47,2.47,0,0,1-1.44.32Zm-.08-4.29,1-1h1.44l-1.71,1Z" transform="translate(-1101.61 -128.87)"/><path class="cls-2" d="M1124.83,162.67h1.45a.28.28,0,0,0,.18.26,1.51,1.51,0,0,0,.56.08h1a.93.93,0,0,0,.43-.07.23.23,0,0,0,.12-.22.25.25,0,0,0-.13-.22,1,1,0,0,0-.43-.09l-1.35,0a2.77,2.77,0,0,1-1.42-.26,1,1,0,0,1-.4-.88,1.05,1.05,0,0,1,.43-.94,2.66,2.66,0,0,1,1.43-.29h1.55a1.82,1.82,0,0,1,1.1.27,1,1,0,0,1,.37.85h-1.37a.39.39,0,0,0-.22-.16,1.42,1.42,0,0,0-.46-.06h-1a.85.85,0,0,0-.38.06.2.2,0,0,0-.11.18.22.22,0,0,0,.11.2,2.34,2.34,0,0,0,.53.08h1.67a1.69,1.69,0,0,1,1.07.3,1.11,1.11,0,0,1,.34.9,1.17,1.17,0,0,1-.37,1,2.22,2.22,0,0,1-1.33.29h-1.39a3.17,3.17,0,0,1-1.59-.27,1.11,1.11,0,0,1-.43-1" transform="translate(-1101.61 -128.87)"/><path class="cls-2" d="M1131.17,161.06h-.77v-1h.77v-.91h1.37v.91h2.14v1h-2.14v1.3a.59.59,0,0,0,.12.42.57.57,0,0,0,.41.12.63.63,0,0,0,.46-.13.54.54,0,0,0,.13-.42,1.72,1.72,0,0,0,0-.2v0h1.21s0,.08,0,.13v.2a1.32,1.32,0,0,1-.45,1.12,3.39,3.39,0,0,1-2.85,0,1.19,1.19,0,0,1-.4-1Z" transform="translate(-1101.61 -128.87)"/><path class="cls-2" d="M1140.32,163.87H1139v-.46a1.17,1.17,0,0,1-.64.39,4.41,4.41,0,0,1-1.14.12,2.69,2.69,0,0,1-1.43-.27,1.16,1.16,0,0,1-.39-1,1.09,1.09,0,0,1,.4-1,3,3,0,0,1,1.52-.27,5.86,5.86,0,0,1,1,.08,1.82,1.82,0,0,1,.64.25v-.41a.4.4,0,0,0-.14-.31.63.63,0,0,0-.39-.1h-1.12a.47.47,0,0,0-.3.07.24.24,0,0,0-.1.22h-1.37v0a.92.92,0,0,1,.44-.86,3,3,0,0,1,1.48-.27h1.34a1.76,1.76,0,0,1,1.15.31,1.15,1.15,0,0,1,.38.95Zm-2.07-1.64h-.83a1.12,1.12,0,0,0-.53.09.32.32,0,0,0-.15.3.29.29,0,0,0,.14.28,1.11,1.11,0,0,0,.54.08h.83a1.3,1.3,0,0,0,.53-.08.33.33,0,0,0,.15-.31.3.3,0,0,0-.13-.28A1.34,1.34,0,0,0,1138.25,162.23Z" transform="translate(-1101.61 -128.87)"/><path class="cls-2" d="M1142.9,163.92a2.37,2.37,0,0,1-1.39-.32,1.28,1.28,0,0,1-.42-1.07v-1a1.37,1.37,0,0,1,.4-1.14,2.28,2.28,0,0,1,1.41-.33h1.3a2.47,2.47,0,0,1,1.38.31,1.12,1.12,0,0,1,.44,1v.15c0,.05,0,.11,0,.16h-1.29v0a.5.5,0,0,0-.18-.43,1,1,0,0,0-.58-.13h-.67a1.05,1.05,0,0,0-.65.15.71.71,0,0,0-.17.54v.49a.6.6,0,0,0,.19.51.94.94,0,0,0,.63.16h.6a1.2,1.2,0,0,0,.67-.13.6.6,0,0,0,.16-.49h1.36a.28.28,0,0,1,0,.09v.14a1.3,1.3,0,0,1-.42,1.09,2.51,2.51,0,0,1-1.44.32Z" transform="translate(-1101.61 -128.87)"/><path class="cls-2" d="M1148.45,164.08a1.06,1.06,0,0,1-.29.85,1.77,1.77,0,0,1-1.05.23h-.25l-.31,0v-1h.2a.3.3,0,0,0,.25-.1.5.5,0,0,0,.08-.31v-3.7h1.37Zm0-4.47h-1.37V158.5h1.37Z" transform="translate(-1101.61 -128.87)"/><path class="cls-2" d="M1150.93,159.61h-1.37V158.5h1.37Zm0,4.26h-1.37v-3.8h1.37Z" transform="translate(-1101.61 -128.87)"/><path class="cls-2" d="M1157,163.19v2h-1.37v-5.09H1157v.7a.69.69,0,0,1,.42-.58,3.49,3.49,0,0,1,1.27-.17,3.08,3.08,0,0,1,1.56.29,1.09,1.09,0,0,1,.44,1v1.26a1.11,1.11,0,0,1-.46,1,2.83,2.83,0,0,1-1.52.31,3.64,3.64,0,0,1-1.24-.15.76.76,0,0,1-.47-.52m.84-2.12a1.14,1.14,0,0,0-.67.15.56.56,0,0,0-.19.49v.45a.65.65,0,0,0,.18.53,1.23,1.23,0,0,0,.68.14h.62a1.14,1.14,0,0,0,.67-.15.58.58,0,0,0,.2-.49v-.48a.57.57,0,0,0-.2-.49,1.1,1.1,0,0,0-.67-.15Z" transform="translate(-1101.61 -128.87)"/><path class="cls-2" d="M1166.3,163.87h-1.37v-.46a1.17,1.17,0,0,1-.64.39,4.33,4.33,0,0,1-1.13.12,2.71,2.71,0,0,1-1.44-.27,1.16,1.16,0,0,1-.39-1,1.1,1.1,0,0,1,.41-1,2.91,2.91,0,0,1,1.51-.27,5.78,5.78,0,0,1,1,.08,1.82,1.82,0,0,1,.64.25v-.41a.39.39,0,0,0-.13-.31.68.68,0,0,0-.4-.1h-1.12a.51.51,0,0,0-.3.07.25.25,0,0,0-.09.22h-1.38v0a.91.91,0,0,1,.45-.86,3,3,0,0,1,1.48-.27h1.34a1.77,1.77,0,0,1,1.15.31,1.15,1.15,0,0,1,.37.95Zm-2.06-1.64h-.84a1.15,1.15,0,0,0-.53.09.32.32,0,0,0-.15.3.29.29,0,0,0,.14.28,1.11,1.11,0,0,0,.54.08h.84a1.24,1.24,0,0,0,.52-.08.32.32,0,0,0,.16-.31.3.3,0,0,0-.14-.28A1.25,1.25,0,0,0,1164.24,162.23Z" transform="translate(-1101.61 -128.87)"/><rect class="cls-2" x="65.64" y="29.63" width="1.37" height="5.37"/><path class="cls-2" d="M1171.13,159.61h-1.37V158.5h1.37Zm0,4.26h-1.37v-3.8h1.37Z" transform="translate(-1101.61 -128.87)"/><polygon class="cls-2" points="71.59 35 70.15 31.2 71.66 31.2 72.55 33.89 73.54 31.2 74.77 31.2 75.72 33.89 76.68 31.2 78.14 31.2 76.66 35 74.89 35 74.14 32.89 73.35 35 71.59 35"/></svg>