<svg id="Warstwa_1" data-name="Warstwa 1" xmlns="http://www.w3.org/2000/svg" viewBox="0 0 145.95 33.71"><defs><style>.cls-1{fill:#fff;}.cls-2{fill:#d4291c;}</style></defs><path class="cls-1" d="M1123.15,148.51v.57l0,.55,0,.53.11,2.26h-6.83l3.43-4.94.64-.93.38-.6.42-.61.36-.6.37-.57.32-.59.32-.6.32-.61.27-.6-.07.6,0,.57,0,.57,0,.48,0,.48V148ZM1120,138.37h-.16l-16.54,22.52h7.49l3.5-5h9.32l.32,5h7.1l-1.92-22.52H1120" transform="translate(-1087.89 -133.92)"/><polygon class="cls-1" points="66.58 13.11 66.42 12.79 66.22 12.52 66.03 12.24 65.74 11.99 65.42 11.74 65.1 11.58 64.71 11.4 64.25 11.26 63.77 11.15 63.25 11.03 62.72 10.99 62.13 10.94 61.49 10.92 60.53 10.94 59.64 11.08 58.79 11.19 58.04 11.42 57.67 11.56 57.35 11.72 56.99 11.9 56.67 12.11 56.35 12.31 56.07 12.56 55.78 12.79 55.46 13.07 55.87 11.26 49.52 11.26 49.45 11.63 49.36 11.95 49.29 12.31 49.2 12.68 49.09 13.04 48.97 13.38 48.83 13.75 48.72 14.16 44.63 26.98 51.32 26.98 54.45 17.18 54.59 16.81 54.75 16.45 54.95 16.13 55.12 15.8 55.3 15.49 55.55 15.23 55.76 15.01 55.98 14.76 56.28 14.6 56.51 14.39 56.78 14.28 57.08 14.16 57.35 14.07 57.63 14 57.92 13.96 58.24 13.96 58.63 13.96 59 14.05 59.32 14.12 59.57 14.23 59.75 14.44 59.89 14.64 59.96 14.89 60 15.17 59.96 15.23 59.96 15.37 59.96 15.49 59.91 15.6 59.89 15.76 59.84 15.92 59.8 16.08 59.75 16.24 56.3 26.98 63.02 26.98 66.47 16.29 66.54 16.03 66.58 15.76 66.63 15.53 66.67 15.23 66.69 15.01 66.74 14.71 66.74 14.48 66.74 14.21 66.74 13.84 66.67 13.43 66.58 13.11"/><polygon class="cls-1" points="114.73 7.93 115.78 4.45 113.5 4.45 109.11 4.45 108.04 7.93 113.5 7.93 114.73 7.93"/><polygon class="cls-1" points="145.93 13.84 145.88 13.47 145.77 13.11 145.63 12.79 145.47 12.52 145.24 12.24 144.99 11.99 144.72 11.79 144.4 11.58 144.03 11.4 143.67 11.26 143.23 11.15 142.8 11.08 142.28 10.99 141.75 10.94 141.18 10.92 140.22 10.94 139.31 11.08 138.85 11.15 138.46 11.26 138 11.4 137.61 11.51 137.2 11.67 136.84 11.88 136.45 12.06 136.09 12.27 135.72 12.52 135.4 12.75 135.03 13.04 134.71 13.36 134.65 13.06 134.53 12.79 134.35 12.56 134.19 12.31 134.01 12.11 133.75 11.9 133.53 11.72 133.23 11.56 132.91 11.4 132.59 11.26 132.22 11.19 131.84 11.08 131.43 11.03 130.99 10.94 130.56 10.94 130.06 10.92 129.1 10.94 128.25 11.08 127.41 11.24 126.65 11.47 126.29 11.58 125.92 11.74 125.6 11.9 125.28 12.11 124.96 12.31 124.64 12.56 124.37 12.79 124.09 13.06 124.53 11.26 118.22 11.26 118.13 11.67 118.06 12.06 117.97 12.43 117.86 12.79 117.79 13.16 117.65 13.47 117.58 13.84 117.47 14.16 113.49 26.54 113.36 26.98 113.49 26.98 119.98 26.98 123.09 17.18 123.2 16.81 123.36 16.45 123.52 16.08 123.68 15.76 123.89 15.49 124.05 15.21 124.28 14.96 124.48 14.76 124.73 14.55 124.96 14.39 125.21 14.28 125.44 14.16 125.74 14.07 126.01 14 126.29 13.96 126.58 13.96 126.97 13.96 127.29 14.05 127.54 14.12 127.77 14.23 127.93 14.44 128.07 14.64 128.14 14.89 128.18 15.17 128.18 15.28 128.14 15.37 128.14 15.49 128.14 15.65 128.09 15.76 128.07 15.92 128.02 16.08 127.93 16.24 124.53 26.98 131.04 26.98 134.19 17.18 134.35 16.81 134.49 16.45 134.65 16.08 134.81 15.76 135.01 15.49 135.19 15.21 135.4 14.96 135.6 14.76 135.83 14.55 136.09 14.39 136.34 14.28 136.56 14.16 136.84 14.07 137.13 14 137.41 13.96 137.68 13.96 138.05 13.96 138.37 14.05 138.67 14.12 138.85 14.23 139.06 14.44 139.17 14.64 139.26 14.89 139.26 15.17 139.26 15.28 139.26 15.37 139.26 15.49 139.21 15.65 139.21 15.76 139.17 15.92 139.15 16.08 139.1 16.24 135.65 26.98 142.18 26.98 145.56 16.29 145.63 16.01 145.72 15.71 145.79 15.49 145.84 15.21 145.88 14.96 145.93 14.69 145.93 14.44 145.95 14.21 145.93 13.84"/><polygon class="cls-1" points="113.65 11.26 113.5 11.26 106.94 11.26 103.58 21.75 101.89 26.98 103.58 26.98 108.58 26.98 113.5 11.7 113.65 11.26"/><polygon class="cls-1" points="105.25 11.26 103.58 11.26 98.28 11.26 93.26 18.96 93.01 19.32 92.78 19.76 92.48 20.24 92.21 20.81 91.89 21.45 91.57 22.13 91.2 22.89 90.84 23.73 90.84 21.56 90.88 11.26 83.58 11.26 77.43 20.24 77.2 20.65 76.93 21.04 76.68 21.45 76.45 21.84 76.24 22.25 75.99 22.68 75.79 23.14 75.6 23.57 75.67 22.89 75.76 22.2 75.83 21.61 75.88 20.99 75.92 20.49 75.94 19.96 75.99 19.51 75.99 19.07 76.11 11.26 69.69 11.26 70.56 26.98 77.73 26.98 84.26 18.02 84.46 17.7 84.67 17.38 84.88 17.02 85.1 16.61 85.31 16.17 85.58 15.69 85.83 15.12 86.06 14.65 86.04 14.76 86.04 14.91 86.04 15.08 86.04 15.23 86 15.44 86 15.65 86 15.88 86.2 26.98 93.65 26.98 103.58 13.55 105.25 11.26"/><polygon class="cls-2" points="0 33.71 142.64 30.08 8.79 30.08 32.39 0 0 33.71"/></svg>