<?xml version="1.0" encoding="UTF-8" standalone="no"?>
<svg
   xmlns:dc="http://purl.org/dc/elements/1.1/"
   xmlns:cc="http://creativecommons.org/ns#"
   xmlns:rdf="http://www.w3.org/1999/02/22-rdf-syntax-ns#"
   xmlns:svg="http://www.w3.org/2000/svg"
   xmlns="http://www.w3.org/2000/svg"
   xmlns:sodipodi="http://sodipodi.sourceforge.net/DTD/sodipodi-0.dtd"
   xmlns:inkscape="http://www.inkscape.org/namespaces/inkscape"
   id="Warstwa_1"
   data-name="Warstwa 1"
   viewBox="0 0 78.000001 78"
   version="1.1"
   sodipodi:docname="stacje_ico.svg"
   inkscape:version="0.92.3 (2405546, 2018-03-11)"
   width="78"
   height="78"
   inkscape:export-filename="D:\Projekty\Primigenius\Anwim\elementy\elementy\ico_stacje.png"
   inkscape:export-xdpi="167.71085"
   inkscape:export-ydpi="167.71085">
  <metadata
     id="metadata31">
    <rdf:RDF>
      <cc:Work
         rdf:about="">
        <dc:format>image/svg+xml</dc:format>
        <dc:type
           rdf:resource="http://purl.org/dc/dcmitype/StillImage" />
        <dc:title></dc:title>
      </cc:Work>
    </rdf:RDF>
  </metadata>
  <sodipodi:namedview
     pagecolor="#ffffff"
     bordercolor="#666666"
     borderopacity="1"
     objecttolerance="10"
     gridtolerance="10"
     guidetolerance="10"
     inkscape:pageopacity="0"
     inkscape:pageshadow="2"
     inkscape:window-width="1920"
     inkscape:window-height="1017"
     id="namedview29"
     showgrid="false"
     inkscape:zoom="1.3485714"
     inkscape:cx="-78.599998"
     inkscape:cy="-94.999956"
     inkscape:window-x="-8"
     inkscape:window-y="-8"
     inkscape:window-maximized="1"
     inkscape:current-layer="Warstwa_1"
     fit-margin-top="3.49999"
     fit-margin-left="5.8"
     fit-margin-right="5.8"
     fit-margin-bottom="3.49999" />
  <defs
     id="defs4">
    <style
       id="style2">.cls-1{fill:#d4291c;}.cls-2{isolation:isolate;font-size:18px;fill:#fff;font-family:HelveticaNeue-Medium, Helvetica Neue;font-weight:500;}.cls-3{fill:none;stroke:#fff;stroke-linecap:round;stroke-linejoin:round;stroke-width:2px;}</style>
  </defs>
  <path
     class="cls-3"
     d="m 9.8699989,64.299994 v -47.53 c 0,-6.350004 4.3800001,-12.2700042 10.7300001,-12.2700042 h 18.4 c 6.35,0 10.73,5.9200002 10.73,12.2700042 v 47.53"
     id="path10"
     inkscape:connector-curvature="0"
     style="fill:none;stroke:#ffffff;stroke-width:2px;stroke-linecap:round;stroke-linejoin:round" />
  <rect
     class="cls-3"
     x="6.8000002"
     y="64.299995"
     width="46"
     height="9.1999998"
     id="rect12"
     style="fill:none;stroke:#ffffff;stroke-width:2px;stroke-linecap:round;stroke-linejoin:round" />
  <polyline
     class="cls-3"
     points="113.5 85.93 108.9 85.93 108.9 75.2 111.97 72.13"
     id="polyline14"
     transform="translate(-51.500003,-38.50001)"
     style="fill:none;stroke:#ffffff;stroke-width:2px;stroke-linecap:round;stroke-linejoin:round" />
  <polygon
     class="cls-3"
     points="111.97,72.13 116.57,75.2 116.57,85.93 121.17,85.93 122.7,84.4 122.7,66 111.97,66 "
     id="polygon16"
     transform="translate(-51.500003,-38.50001)"
     style="fill:none;stroke:#ffffff;stroke-width:2px;stroke-linecap:round;stroke-linejoin:round" />
  <polyline
     class="cls-3"
     points="111.97 44.53 119.63 55.27 119.63 66"
     id="polyline18"
     transform="translate(-51.500003,-38.50001)"
     style="fill:none;stroke:#ffffff;stroke-width:2px;stroke-linecap:round;stroke-linejoin:round" />
  <path
     class="cls-3"
     d="m 49.729999,55.099994 h 7.67 a 3.06,3.06 0 0 1 3.1,3.07 v 0 12.259999 a 3.06,3.06 0 0 0 3,3.070001 h 3.08 a 3.06,3.06 0 0 0 3.07,-3.070001 v 0 -22.999999"
     id="path20"
     inkscape:connector-curvature="0"
     style="fill:none;stroke:#ffffff;stroke-width:2px;stroke-linecap:round;stroke-linejoin:round" />
  <path
     class="cls-3"
     d="m 15.999999,27.499994 h 27.6 v -10.73 a 6.14,6.14 0 0 0 -6.1,-6.140004 h -15.37 a 6.14,6.14 0 0 0 -6.13,6.140004 z"
     id="path22"
     inkscape:connector-curvature="0"
     style="fill:none;stroke:#ffffff;stroke-width:2px;stroke-linecap:round;stroke-linejoin:round" />
  <line
     class="cls-3"
     x1="32.869999"
     y1="19.829998"
     x2="35.929996"
     y2="15.229992"
     id="line24"
     style="fill:none;stroke:#ffffff;stroke-width:2px;stroke-linecap:round;stroke-linejoin:round" />
  <path
     class="cls-3"
     d="m 35.929999,27.499994 v -1.5 a 6.13,6.13 0 1 0 -12.26,0 v 0 1.5"
     id="path26"
     inkscape:connector-curvature="0"
     style="fill:none;stroke:#ffffff;stroke-width:2px;stroke-linecap:round;stroke-linejoin:round" />
</svg>
