<?xml version="1.0" encoding="UTF-8" standalone="no"?>
<svg
   xmlns:dc="http://purl.org/dc/elements/1.1/"
   xmlns:cc="http://creativecommons.org/ns#"
   xmlns:rdf="http://www.w3.org/1999/02/22-rdf-syntax-ns#"
   xmlns:svg="http://www.w3.org/2000/svg"
   xmlns="http://www.w3.org/2000/svg"
   xmlns:sodipodi="http://sodipodi.sourceforge.net/DTD/sodipodi-0.dtd"
   xmlns:inkscape="http://www.inkscape.org/namespaces/inkscape"
   id="Warstwa_1"
   data-name="Warstwa 1"
   viewBox="0 0 104 104"
   version="1.1"
   sodipodi:docname="ico_email-template-list.svg"
   width="104"
   height="104"
   inkscape:version="0.92.3 (2405546, 2018-03-11)">
  <metadata
     id="metadata33">
    <rdf:RDF>
      <cc:Work
         rdf:about="">
        <dc:format>image/svg+xml</dc:format>
        <dc:type
           rdf:resource="http://purl.org/dc/dcmitype/StillImage" />
        <dc:title></dc:title>
      </cc:Work>
    </rdf:RDF>
  </metadata>
  <sodipodi:namedview
     pagecolor="#ffffff"
     bordercolor="#666666"
     borderopacity="1"
     objecttolerance="10"
     gridtolerance="10"
     guidetolerance="10"
     inkscape:pageopacity="0"
     inkscape:pageshadow="2"
     inkscape:window-width="1920"
     inkscape:window-height="1017"
     id="namedview31"
     showgrid="false"
     fit-margin-top="16.73204"
     fit-margin-bottom="16.73203"
     fit-margin-left="0.32494"
     fit-margin-right="0.32495"
     inkscape:zoom="1.3485714"
     inkscape:cx="51.994947"
     inkscape:cy="37.247936"
     inkscape:window-x="-8"
     inkscape:window-y="-8"
     inkscape:window-maximized="1"
     inkscape:current-layer="Warstwa_1" />
  <defs
     id="defs4">
    <style
       id="style2">.cls-1{fill:#1c3275;}.cls-2{font-size:18px;fill:#fff;font-family:HelveticaNeue-Medium, Helvetica Neue;font-weight:500;}.cls-3{fill:none;stroke:#fff;stroke-linecap:round;stroke-linejoin:round;stroke-width:2px;}</style>
  </defs>
  <path
     class="cls-3"
     d="m 6.9249471,27.522079 29.1999999,23.12 a 4.79,4.79 0 0 0 5.87,0"
     id="path12"
     inkscape:connector-curvature="0"
     style="fill:none;stroke:#ffffff;stroke-width:2px;stroke-linecap:round;stroke-linejoin:round" />
  <line
     class="cls-3"
     x1="20.524946"
     y1="44.462078"
     x2="7.1549473"
     y2="55.22208"
     id="line14"
     style="fill:none;stroke:#ffffff;stroke-width:2px;stroke-linecap:round;stroke-linejoin:round" />
  <path
     class="cls-3"
     d="M 50.174947,67.532079 H 8.5149471 a 7.19,7.19 0 0 1 -7.19,-7.2 v -34 c 0,-4 3.22,-7.78 7.19,-7.78 H 66.674947"
     id="path16"
     inkscape:connector-curvature="0"
     style="fill:none;stroke:#ffffff;stroke-width:2px;stroke-linecap:round;stroke-linejoin:round" />
  <path
     class="cls-3"
     d="m 84.794947,46.672079 v -5.66 a 1.57,1.57 0 0 0 -1.57,-1.57 h -2.56 a 16.69,16.69 0 0 0 -1.37,-3.32 l 1.8,-1.8 a 1.56,1.56 0 0 0 0,-2.22 l -4,-4 a 1.56,1.56 0 0 0 -2.22,0 l -1.75,1.79 a 15.54,15.54 0 0 0 -3.33,-1.4 v -2.52 a 1.57,1.57 0 0 0 -1.57,-1.57 h -5.7 a 1.57,1.57 0 0 0 -1.57,1.57 v 2.49 a 15.62,15.62 0 0 0 -3.37,1.39 l -1.75,-1.72 a 1.56,1.56 0 0 0 -2.22,0 l -4,4 a 1.58,1.58 0 0 0 0,2.22 l 1.74,1.74 a 15.76,15.76 0 0 0 -1.41,3.38 h -2.45 a 1.57,1.57 0 0 0 -1.57,1.57 v 5.66 a 1.57,1.57 0 0 0 1.57,1.57 h 2.45 a 16.06,16.06 0 0 0 1.41,3.39 l -1.74,1.73 a 1.58,1.58 0 0 0 0,2.22 l 4,4 a 1.58,1.58 0 0 0 2.22,0 l 1.75,-1.76 a 15.62,15.62 0 0 0 3.37,1.39 v 2.49 a 1.57,1.57 0 0 0 1.57,1.57 h 5.66 a 1.57,1.57 0 0 0 1.57,-1.57 v -2.52 a 15.54,15.54 0 0 0 3.33,-1.4 l 1.79,1.8 a 1.58,1.58 0 0 0 2.22,0 l 4,-4 a 1.56,1.56 0 0 0 0,-2.22 l -1.8,-1.8 a 16.45,16.45 0 0 0 1.37,-3.32 h 2.56 a 1.57,1.57 0 0 0 1.57,-1.6 z"
     id="path18"
     inkscape:connector-curvature="0"
     style="fill:none;stroke:#ffffff;stroke-width:2px;stroke-linecap:round;stroke-linejoin:round" />
  <path
     class="cls-3"
     d="m 88.124947,37.002079 h 2.07 a 1.27,1.27 0 0 0 1.27,-1.28 v -4.59 a 1.27,1.27 0 0 0 -1.27,-1.27 h -2.07 a 13,13 0 0 0 -1.11,-2.69 l 1.46,-1.46 a 1.26,1.26 0 0 0 0,-1.79 l -3.24,-3.24 a 1.26,1.26 0 0 0 -1.79,0 l -1.43,1.45 a 13.39,13.39 0 0 0 -2.7,-1.13 v -2 a 1.27,1.27 0 0 0 -1.27,-1.27 h -4.57 a 1.27,1.27 0 0 0 -1.28,1.27 v 2"
     id="path20"
     inkscape:connector-curvature="0"
     style="fill:none;stroke:#ffffff;stroke-width:2px;stroke-linecap:round;stroke-linejoin:round" />
  <path
     class="cls-3"
     d="m 64.564947,34.762079 a 9.12,9.12 0 1 0 9.88,9.83"
     id="path22"
     inkscape:connector-curvature="0"
     style="fill:none;stroke:#ffffff;stroke-width:2px;stroke-linecap:round;stroke-linejoin:round" />
  <path
     class="cls-3"
     d="m 73.934947,40.762079 a 9.13,9.13 0 0 0 -6,-5.66"
     id="path24"
     inkscape:connector-curvature="0"
     style="fill:none;stroke:#ffffff;stroke-width:2px;stroke-linecap:round;stroke-linejoin:round" />
  <path
     class="cls-3"
     d="m 102.67495,58.702079 v 9 a 7.29,7.29 0 0 1 -7.290003,7.29 h -13.4 a 0.88,0.88 0 0 0 -0.63,0.26 l -10.76,10.76 a 0.89,0.89 0 0 1 -1.52,-0.63 v -9.51 a 0.87,0.87 0 0 0 -0.88,-0.88 h -3.63 a 7.3,7.3 0 0 1 -7.29,-7.29"
     id="path26"
     inkscape:connector-curvature="0"
     style="fill:none;stroke:#ffffff;stroke-width:2px;stroke-linecap:round;stroke-linejoin:round" />
  <path
     class="cls-3"
     d="m 95.674947,31.612079 h 3.1 a 3.91,3.91 0 0 1 3.900003,3.9 v 13.68 a 3.91,3.91 0 0 1 -3.900003,3.91 h -2.48 a 0.47,0.47 0 0 0 -0.48,0.47 v 5.09 a 0.47,0.47 0 0 1 -0.81,0.34 l -5.77,-5.77 a 0.51,0.51 0 0 0 -0.33,-0.13 h -3.08"
     id="path28"
     inkscape:connector-curvature="0"
     style="fill:none;stroke:#ffffff;stroke-width:2px;stroke-linecap:round;stroke-linejoin:round" />
</svg>
