<?xml version="1.0" encoding="UTF-8" standalone="no"?>
<svg
   xmlns:dc="http://purl.org/dc/elements/1.1/"
   xmlns:cc="http://creativecommons.org/ns#"
   xmlns:rdf="http://www.w3.org/1999/02/22-rdf-syntax-ns#"
   xmlns:svg="http://www.w3.org/2000/svg"
   xmlns="http://www.w3.org/2000/svg"
   xmlns:sodipodi="http://sodipodi.sourceforge.net/DTD/sodipodi-0.dtd"
   xmlns:inkscape="http://www.inkscape.org/namespaces/inkscape"
   id="Warstwa_1"
   data-name="Warstwa 1"
   viewBox="0 0 78 78.000001"
   version="1.1"
   sodipodi:docname="Użytkownicy_ico.svg"
   inkscape:version="0.92.3 (2405546, 2018-03-11)"
   width="78"
   height="78">
  <metadata
     id="metadata31">
    <rdf:RDF>
      <cc:Work
         rdf:about="">
        <dc:format>image/svg+xml</dc:format>
        <dc:type
           rdf:resource="http://purl.org/dc/dcmitype/StillImage" />
        <dc:title></dc:title>
      </cc:Work>
    </rdf:RDF>
  </metadata>
  <sodipodi:namedview
     pagecolor="#ffffff"
     bordercolor="#666666"
     borderopacity="1"
     objecttolerance="10"
     gridtolerance="10"
     guidetolerance="10"
     inkscape:pageopacity="0"
     inkscape:pageshadow="2"
     inkscape:window-width="1920"
     inkscape:window-height="1017"
     id="namedview29"
     showgrid="false"
     inkscape:zoom="1.3485714"
     inkscape:cx="39"
     inkscape:cy="28.999069"
     inkscape:window-x="1912"
     inkscape:window-y="-8"
     inkscape:window-maximized="1"
     inkscape:current-layer="Warstwa_1"
     fit-margin-left="3.5"
     fit-margin-right="3.5"
     fit-margin-top="3.49908"
     fit-margin-bottom="3.49907" />
  <defs
     id="defs4">
    <style
       id="style2">.cls-1{fill:#d4291c;}.cls-2{isolation:isolate;font-size:18px;fill:#fff;font-family:HelveticaNeue-Medium, Helvetica Neue;font-weight:500;}.cls-3{fill:none;stroke:#fff;stroke-linecap:round;stroke-linejoin:round;stroke-width:2px;}</style>
  </defs>
  <path
     class="cls-3"
     d="m 56.26,67.230933 a 30.45,30.45 0 0 0 15.67,-21.73"
     id="path10"
     inkscape:connector-curvature="0"
     style="fill:none;stroke:#ffffff;stroke-width:2px;stroke-linecap:round;stroke-linejoin:round" />
  <path
     class="cls-3"
     d="m 21.75,67.230933 a 30.48,30.48 0 0 1 -15.67,-21.73"
     id="path12"
     inkscape:connector-curvature="0"
     style="fill:none;stroke:#ffffff;stroke-width:2px;stroke-linecap:round;stroke-linejoin:round" />
  <path
     class="cls-3"
     d="m 53.72,8.1509326 a 31.51,31.51 0 0 0 -29.45,0"
     id="path14"
     inkscape:connector-curvature="0"
     style="fill:none;stroke:#ffffff;stroke-width:2px;stroke-linecap:round;stroke-linejoin:round" />
  <path
     class="cls-3"
     d="m 62.5,26.500933 c -4.94,0 -11,3.32 -11,5.58 v 5.4 a 20.74,20.74 0 0 0 22,0 v -5.48 c 0,-2.23 -6,-5.5 -11,-5.5 z"
     id="path16"
     inkscape:connector-curvature="0"
     style="fill:none;stroke:#ffffff;stroke-width:2px;stroke-linecap:round;stroke-linejoin:round" />
  <path
     class="cls-3"
     d="m 62.5,10.770933 c -3.24,0 -6.27,2.53 -6.27,5.65 v 4.39 c 0,3.12 3,5.64 6.27,5.64 3.27,0 6.28,-2.52 6.28,-5.64 v -4.39 c 0.02,-3.12 -3.01,-5.65 -6.28,-5.65 z"
     id="path18"
     inkscape:connector-curvature="0"
     style="fill:none;stroke:#ffffff;stroke-width:2px;stroke-linecap:round;stroke-linejoin:round" />
  <path
     class="cls-3"
     d="m 39,59.390933 c -4.94,0 -11,3.31 -11,5.57 v 5.4 c 3.14,2.53 7,3.14 11,3.14 4,0 7.84,-0.61 11,-3.14 v -5.36 c 0,-2.3 -6.06,-5.61 -11,-5.61 z"
     id="path20"
     inkscape:connector-curvature="0"
     style="fill:none;stroke:#ffffff;stroke-width:2px;stroke-linecap:round;stroke-linejoin:round" />
  <path
     class="cls-3"
     d="m 39,43.700933 c -3.24,0 -6.27,2.53 -6.27,5.65 v 4.39 c 0,3.12 3,5.65 6.27,5.65 3.27,0 6.27,-2.53 6.27,-5.65 v -4.39 c 0,-3.12 -3.03,-5.65 -6.27,-5.65 z"
     id="path22"
     inkscape:connector-curvature="0"
     style="fill:none;stroke:#ffffff;stroke-width:2px;stroke-linecap:round;stroke-linejoin:round" />
  <path
     class="cls-3"
     d="m 15.5,26.500933 c -5,0 -11,3.27 -11,5.53 v 5.4 a 18,18 0 0 0 11,3.14 17.94,17.94 0 0 0 11,-3.14 v -5.43 c 0,-2.23 -6.08,-5.5 -11,-5.5 z"
     id="path24"
     inkscape:connector-curvature="0"
     style="fill:none;stroke:#ffffff;stroke-width:2px;stroke-linecap:round;stroke-linejoin:round" />
  <path
     class="cls-3"
     d="m 15.5,10.770933 c -3.25,0 -6.28,2.53 -6.28,5.65 v 4.39 c 0,3.12 3,5.64 6.28,5.64 3.28,0 6.27,-2.52 6.27,-5.64 v -4.39 c -0.02,-3.12 -3.05,-5.65 -6.27,-5.65 z"
     id="path26"
     inkscape:connector-curvature="0"
     style="fill:none;stroke:#ffffff;stroke-width:2px;stroke-linecap:round;stroke-linejoin:round" />
</svg>
