<?xml version="1.0" encoding="UTF-8" standalone="no"?>
<svg
   xmlns:dc="http://purl.org/dc/elements/1.1/"
   xmlns:cc="http://creativecommons.org/ns#"
   xmlns:rdf="http://www.w3.org/1999/02/22-rdf-syntax-ns#"
   xmlns:svg="http://www.w3.org/2000/svg"
   xmlns="http://www.w3.org/2000/svg"
   xmlns:sodipodi="http://sodipodi.sourceforge.net/DTD/sodipodi-0.dtd"
   xmlns:inkscape="http://www.inkscape.org/namespaces/inkscape"
   id="Warstwa_1"
   data-name="Warstwa 1"
   viewBox="0 0 77.999992 77.999993"
   version="1.1"
   sodipodi:docname="parametry aplikacji_ico.svg"
   inkscape:version="0.92.3 (2405546, 2018-03-11)"
   width="77.999992"
   height="77.999992">
  <metadata
     id="metadata25">
    <rdf:RDF>
      <cc:Work
         rdf:about="">
        <dc:format>image/svg+xml</dc:format>
        <dc:type
           rdf:resource="http://purl.org/dc/dcmitype/StillImage" />
        <dc:title></dc:title>
      </cc:Work>
    </rdf:RDF>
  </metadata>
  <sodipodi:namedview
     pagecolor="#ffffff"
     bordercolor="#666666"
     borderopacity="1"
     objecttolerance="10"
     gridtolerance="10"
     guidetolerance="10"
     inkscape:pageopacity="0"
     inkscape:pageshadow="2"
     inkscape:window-width="1920"
     inkscape:window-height="1017"
     id="namedview23"
     showgrid="false"
     inkscape:zoom="1.3485714"
     inkscape:cx="42.00001"
     inkscape:cy="23.009991"
     inkscape:window-x="-8"
     inkscape:window-y="-8"
     inkscape:window-maximized="1"
     inkscape:current-layer="Warstwa_1"
     fit-margin-top="3.49001"
     fit-margin-bottom="3.49001"
     fit-margin-left="3.50001"
     fit-margin-right="3.50001" />
  <defs
     id="defs4">
    <style
       id="style2">.cls-1{fill:#d4291c;}.cls-2,.cls-3{isolation:isolate;}.cls-3{font-size:18px;fill:#fff;font-family:HelveticaNeue-Medium, Helvetica Neue;font-weight:500;}.cls-4{fill:none;stroke:#fff;stroke-linecap:round;stroke-linejoin:round;stroke-width:2px;}</style>
  </defs>
  <path
     class="cls-4"
     d="m 46.66001,28.58001 v -6.09 l -4.45,-0.72 a 17.14,17.14 0 0 0 -2.2,-5.28 l 2.64,-3.67 -4.33,-4.33 -3.67,2.63 a 17.12,17.12 0 0 0 -5.28,-2.19 l -0.73,-4.44 h -6.14 l -0.72,4.45 a 17.12,17.12 0 0 0 -5.28,2.19 l -3.66,-2.64 -4.34,4.34 2.64,3.66 a 17.12,17.12 0 0 0 -2.19,5.28 l -4.45,0.72 v 6.14 l 4.45,0.72 a 17.12,17.12 0 0 0 2.19,5.28 l -2.64,3.68 4.33,4.33 3.67,-2.64 a 17.14,17.14 0 0 0 5.28,2.2 l 0.72,4.45 h 6.13 l 0.73,-4.45 a 17.14,17.14 0 0 0 5.28,-2.2 l 3.67,2.64 4.33,-4.33 -2.64,-3.67 a 17.14,17.14 0 0 0 2.2,-5.28 z"
     id="path14"
     inkscape:connector-curvature="0"
     style="fill:none;stroke:#ffffff;stroke-width:2px;stroke-linecap:round;stroke-linejoin:round" />
  <circle
     class="cls-4"
     cx="55.690014"
     cy="55.680012"
     r="4.52"
     id="circle16"
     style="fill:none;stroke:#ffffff;stroke-width:2px;stroke-linecap:round;stroke-linejoin:round" />
  <path
     class="cls-4"
     d="m 73.50001,51.66001 -1.88,-4.91 -4,0.9 a 14.39,14.39 0 0 0 -3.33,-3.5 l 1.11,-3.91 -4.8,-2.13 -2.17,3.44 a 14.24,14.24 0 0 0 -4.83,-0.13 l -2,-3.55 -4.91,1.89 0.9,4 a 14.39,14.39 0 0 0 -3.5,3.33 l -3.91,-1.1 -2.13,4.8 3.45,2.11 a 14.5,14.5 0 0 0 -0.13,4.83 l -3.54,2 1.89,4.9 4,-0.9 a 14.2,14.2 0 0 0 3.33,3.5 l -1.11,3.91 4.81,2.14 2.16,-3.44 a 14.5,14.5 0 0 0 4.83,0.13 l 2,3.54 4.9,-1.88 -0.9,-4 a 14.39,14.39 0 0 0 3.5,-3.33 l 3.91,1.11 2.14,-4.8 -3.51,-2.12 a 14.5,14.5 0 0 0 0.13,-4.83 z"
     id="path18"
     inkscape:connector-curvature="0"
     style="fill:none;stroke:#ffffff;stroke-width:2px;stroke-linecap:round;stroke-linejoin:round" />
  <circle
     class="cls-4"
     cx="25.580011"
     cy="25.570011"
     r="4.52"
     id="circle20"
     style="fill:none;stroke:#ffffff;stroke-width:2px;stroke-linecap:round;stroke-linejoin:round" />
</svg>
