<?xml version="1.0" encoding="UTF-8" standalone="no"?>
<svg
   xmlns:dc="http://purl.org/dc/elements/1.1/"
   xmlns:cc="http://creativecommons.org/ns#"
   xmlns:rdf="http://www.w3.org/1999/02/22-rdf-syntax-ns#"
   xmlns:svg="http://www.w3.org/2000/svg"
   xmlns="http://www.w3.org/2000/svg"
   xmlns:sodipodi="http://sodipodi.sourceforge.net/DTD/sodipodi-0.dtd"
   xmlns:inkscape="http://www.inkscape.org/namespaces/inkscape"
   id="Warstwa_1"
   data-name="Warstwa 1"
   viewBox="0 0 77.999999 78"
   version="1.1"
   sodipodi:docname="ico-help.svg"
   inkscape:version="0.92.3 (2405546, 2018-03-11)"
   width="78"
   height="78">
  <metadata
     id="metadata35">
    <rdf:RDF>
      <cc:Work
         rdf:about="">
        <dc:format>image/svg+xml</dc:format>
        <dc:type
           rdf:resource="http://purl.org/dc/dcmitype/StillImage" />
        <dc:title></dc:title>
      </cc:Work>
    </rdf:RDF>
  </metadata>
  <sodipodi:namedview
     pagecolor="#ffffff"
     bordercolor="#666666"
     borderopacity="1"
     objecttolerance="10"
     gridtolerance="10"
     guidetolerance="10"
     inkscape:pageopacity="0"
     inkscape:pageshadow="2"
     inkscape:window-width="1920"
     inkscape:window-height="1017"
     id="namedview33"
     showgrid="false"
     inkscape:zoom="1.3485714"
     inkscape:cx="39.28582"
     inkscape:cy="30.267049"
     inkscape:window-x="1912"
     inkscape:window-y="-8"
     inkscape:window-maximized="1"
     inkscape:current-layer="Warstwa_1"
     fit-margin-top="7.73288"
     fit-margin-bottom="7.73289"
     fit-margin-left="9.894069"
     fit-margin-right="9.89407" />
  <defs
     id="defs4">
    <style
       id="style2">.cls-1{fill:#1c3275;}.cls-2{font-size:18px;fill:#fff;font-family:HelveticaNeue-Medium, Helvetica Neue;font-weight:500;}.cls-3{fill:none;stroke:#fff;stroke-linecap:round;stroke-linejoin:round;stroke-width:2px;}</style>
  </defs>
  <path
     class="cls-3"
     d="m 22.425819,47.632966 c -3.41,0 -5.77,-2.77 -5.77,-6.18 v -2.06 c 0,-3.41 2.36,-6.17 5.77,-6.17 3.41,0 5.76,2.76 5.76,6.17 v 2.06 c 0,3.41 -2.36,6.18 -5.76,6.18 z"
     id="path10"
     inkscape:connector-curvature="0"
     style="fill:none;stroke:#ffffff;stroke-width:2px;stroke-linecap:round;stroke-linejoin:round" />
  <path
     class="cls-3"
     d="m 10.895819,69.252966 c 0,0 0.94,-8 1.44,-11.53 0.5,-3.53 2.59,-5.77 5.76,-5.77 h 2.89 l 10.06,11.53 h 8.65 c 0,0 0.64,5.77 -4.33,5.77 h -8.62 l -7.2,-8.65"
     id="path12"
     inkscape:connector-curvature="0"
     style="fill:none;stroke:#ffffff;stroke-width:2px;stroke-linecap:round;stroke-linejoin:round" />
  <polyline
     class="cls-3"
     points="80.73 98.93 86.49 90.28 105.23 90.28 96.58 104.7 90.82 104.7"
     id="polyline14"
     style="fill:none;stroke:#ffffff;stroke-width:2px;stroke-linecap:round;stroke-linejoin:round"
     transform="translate(-48.214181,-39.767034)" />
  <line
     class="cls-3"
     x1="20.985817"
     y1="69.25296"
     x2="61.335823"
     y2="69.25296"
     id="line16"
     style="fill:none;stroke:#ffffff;stroke-width:2px;stroke-linecap:round;stroke-linejoin:round" />
  <path
     class="cls-3"
     d="m 58.455819,38.982966 -2.88,-5.94 v -8.47 a 8.65,8.65 0 0 0 -17.3,0 v 8.47 l -2.88,5.94 z"
     id="path18"
     inkscape:connector-curvature="0"
     style="fill:none;stroke:#ffffff;stroke-width:2px;stroke-linecap:round;stroke-linejoin:round" />
  <line
     class="cls-3"
     x1="42.60582"
     y1="43.312969"
     x2="51.245819"
     y2="43.312969"
     id="line20"
     style="fill:none;stroke:#ffffff;stroke-width:2px;stroke-linecap:round;stroke-linejoin:round" />
  <line
     class="cls-3"
     x1="46.925819"
     y1="15.922964"
     x2="46.925819"
     y2="11.602964"
     id="line22"
     style="fill:none;stroke:#ffffff;stroke-width:2px;stroke-linecap:round;stroke-linejoin:round" />
  <path
     class="cls-3"
     d="m 32.515819,20.252966 a 5.76,5.76 0 0 1 5.76,-5.77"
     id="path24"
     inkscape:connector-curvature="0"
     style="fill:none;stroke:#ffffff;stroke-width:2px;stroke-linecap:round;stroke-linejoin:round" />
  <path
     class="cls-3"
     d="m 26.745819,18.802966 a 10.08,10.08 0 0 1 10.09,-10.07"
     id="path26"
     inkscape:connector-curvature="0"
     style="fill:none;stroke:#ffffff;stroke-width:2px;stroke-linecap:round;stroke-linejoin:round" />
  <path
     class="cls-3"
     d="m 61.335819,20.252966 a 5.76,5.76 0 0 0 -5.76,-5.77"
     id="path28"
     inkscape:connector-curvature="0"
     style="fill:none;stroke:#ffffff;stroke-width:2px;stroke-linecap:round;stroke-linejoin:round" />
  <path
     class="cls-3"
     d="m 67.105819,18.802966 a 10.08,10.08 0 0 0 -10.09,-10.07"
     id="path30"
     inkscape:connector-curvature="0"
     style="fill:none;stroke:#ffffff;stroke-width:2px;stroke-linecap:round;stroke-linejoin:round" />
</svg>
