<?xml version="1.0" encoding="UTF-8" standalone="no"?>
<!-- Generator: Adobe Illustrator 25.0.1, SVG Export Plug-In . SVG Version: 6.00 Build 0)  -->

<svg
   xmlns:dc="http://purl.org/dc/elements/1.1/"
   xmlns:cc="http://creativecommons.org/ns#"
   xmlns:rdf="http://www.w3.org/1999/02/22-rdf-syntax-ns#"
   xmlns:svg="http://www.w3.org/2000/svg"
   xmlns="http://www.w3.org/2000/svg"
   xmlns:sodipodi="http://sodipodi.sourceforge.net/DTD/sodipodi-0.dtd"
   xmlns:inkscape="http://www.inkscape.org/namespaces/inkscape"
   version="1.1"
   id="Warstwa_1"
   x="0px"
   y="0px"
   viewBox="0 0 120.00001 120"
   xml:space="preserve"
   sodipodi:docname="ico_vnc.svg"
   inkscape:version="0.92.3 (2405546, 2018-03-11)"
   width="120"
   height="120"><metadata
   id="metadata25"><rdf:RDF><cc:Work
       rdf:about=""><dc:format>image/svg+xml</dc:format><dc:type
         rdf:resource="http://purl.org/dc/dcmitype/StillImage" /><dc:title></dc:title></cc:Work></rdf:RDF></metadata><defs
   id="defs23">
	
	
	
	
	

		
		

	</defs><sodipodi:namedview
   pagecolor="#ffffff"
   bordercolor="#666666"
   borderopacity="1"
   objecttolerance="10"
   gridtolerance="10"
   guidetolerance="10"
   inkscape:pageopacity="0"
   inkscape:pageshadow="2"
   inkscape:window-width="640"
   inkscape:window-height="480"
   id="namedview21"
   showgrid="false"
   inkscape:pagecheckerboard="true"
   inkscape:zoom="1.7771429"
   inkscape:cx="157.13567"
   inkscape:cy="29.948324"
   inkscape:current-layer="Warstwa_1"
   fit-margin-left="6.20002"
   fit-margin-right="6.20002"
   fit-margin-top="3.55555"
   fit-margin-bottom="3.55555" />
<style
   type="text/css"
   id="style2">
	.st0{fill:#1C3275;}
	.st1{fill:none;}
	.st2{fill:#FFFFFF;}
	.st3{font-family:'HelveticaNeue-Medium';}
	.st4{font-size:18px;}
	.st5{fill:none;stroke:#FFFFFF;stroke-width:2;stroke-linecap:round;stroke-linejoin:round;stroke-miterlimit:10;}
</style>
<g
   id="g824"
   transform="translate(5.7691138,2.551691)"><text
     y="113.65546"
     x="38.436069"
     style="font-size:18px;font-family:HelveticaNeue-Medium;fill:#ffffff"
     id="text8"
     class="st2 st3 st4">VNC</text>
<path
     class="st5"
     d="m 55.330868,2.003859 -20,60.8 -20,-60.8 h -13.9 l 25.4,77.1 c 2.7,8.2 14.3,8.2 17,0 l 25.4,-77.1 z"
     id="path12"
     inkscape:connector-curvature="0"
     style="fill:none;stroke:#ffffff;stroke-width:2;stroke-linecap:round;stroke-linejoin:round;stroke-miterlimit:10" /><path
     class="st5"
     d="m 88.13087,2.003859 c -10.400002,0 -18.900002,8.5 -18.900002,18.9 0,0 0,0 0,0 v 20.4 h 10.4 v -3.5 -16.9 c 0,-4.7 3.8,-8.5 8.500002,-8.5 4.7,0 8.5,3.8 8.5,8.5 v 16.9 3.5 h 10.4 v -20.4 c 0,-10.5 -8.5,-18.9 -18.9,-18.9 z"
     id="path14"
     inkscape:connector-curvature="0"
     style="fill:none;stroke:#ffffff;stroke-width:2;stroke-linecap:round;stroke-linejoin:round;stroke-miterlimit:10" /><path
     class="st5"
     d="m 67.730868,66.303859 c 0,10.4 8.5,18.9 18.9,18.9 0,0 0,0 0,0 h 20.400002 v -10.4 h -3.5 -16.900002 c -4.7,0 -8.5,-3.8 -8.5,-8.5 0,-4.7 3.8,-8.5 8.5,-8.5 h 16.900002 3.5 v -10.4 H 86.630868 c -10.4,0 -18.9,8.5 -18.9,18.9 z"
     id="path16"
     inkscape:connector-curvature="0"
     style="fill:none;stroke:#ffffff;stroke-width:2;stroke-linecap:round;stroke-linejoin:round;stroke-miterlimit:10" /></g>
</svg>