<svg xmlns="http://www.w3.org/2000/svg" viewBox="0 0 134.67 28.4"><defs><style>.cls-1{fill:#fff;}.cls-2{isolation:isolate;}.cls-3{fill:url(#Gradient_bez_nazwy_2);}</style><linearGradient id="Gradient_bez_nazwy_2" x1="-403.55" y1="1273.33" x2="-402.55" y2="1274.6" gradientTransform="matrix(24.23, 0, 0, -13.11, 9770.39, 16723.81)" gradientUnits="userSpaceOnUse"><stop offset="0" stop-color="#0e49eb"/><stop offset="1" stop-color="#30dbce"/></linearGradient></defs><title>prolab logo</title><g id="Warstwa_2" data-name="Warstwa 2"><g id="Warstwa_1-2" data-name="Warstwa 1"><path id="Path_20" data-name="Path 20" class="cls-1" d="M2.64,20l6-11.25V4.35l-2-.95,1-2.4h9L18.1,2.64,16.38,4h-.74v6l5.92,9Z"/><g id="Group_13" data-name="Group 13"><g id="prolab" class="cls-2"><g class="cls-2"><path class="cls-1" d="M40.09,28.4a1.74,1.74,0,0,1-1.94-1.93V8.38a1.74,1.74,0,0,1,1.94-1.93h.54c1.21,0,1.93.6,1.93,1.65V9.23A5.87,5.87,0,0,1,48,6.16c4,0,7.25,2.8,7.25,8.55s-3.29,8.56-7.27,8.56a5.68,5.68,0,0,1-5.38-3.15v6.35a1.74,1.74,0,0,1-1.93,1.93ZM50.81,14.72c0-3.08-1.67-5-4.18-5s-4.21,1.89-4.21,5,1.69,5,4.17,5S50.81,17.77,50.81,14.72Z"/><path class="cls-1" d="M68.13,8.27l0,.32c-.14,1.2-.83,1.54-2,1.75-2.19.37-3.33,1.83-3.33,4.87V21.1A1.74,1.74,0,0,1,60.81,23h-.54a1.74,1.74,0,0,1-1.93-1.94V8.38a1.74,1.74,0,0,1,1.93-1.93h.54c1.25,0,1.93.58,1.93,1.77V9a4,4,0,0,1,3.83-2.68C67.75,6.28,68.27,7,68.13,8.27Z"/><path class="cls-1" d="M68.92,14.74c0-6,4.25-8.56,8.58-8.56s8.57,2.59,8.57,8.56-4.22,8.61-8.57,8.61S68.92,20.77,68.92,14.74Zm12.76,0c0-3.1-1.72-5-4.19-5s-4.18,1.84-4.18,5,1.72,5,4.2,5S81.68,17.88,81.68,14.73Z"/><path class="cls-1" d="M89.19,21.11V3a1.75,1.75,0,0,1,1.94-1.93h.57A1.74,1.74,0,0,1,93.63,3V21.11A1.74,1.74,0,0,1,91.7,23h-.57A1.75,1.75,0,0,1,89.19,21.11Z"/><path class="cls-1" d="M96.76,14.74c0-5.57,3.12-8.56,7.25-8.56a5.71,5.71,0,0,1,5.4,3.18V8.14c0-1.08.71-1.69,1.93-1.69h.54a1.74,1.74,0,0,1,1.94,1.93v12.7A1.75,1.75,0,0,1,111.88,23h-.54c-1.21,0-1.93-.61-1.93-1.65V20.22A5.72,5.72,0,0,1,104,23.35C99.91,23.35,96.76,20.32,96.76,14.74Zm12.79,0c0-3.06-1.71-5-4.21-5s-4.18,1.89-4.18,5,1.69,5,4.22,5S109.55,17.82,109.55,14.73Z"/><path class="cls-1" d="M122,20.22v1.14c0,1-.72,1.65-1.93,1.65h-.54a1.75,1.75,0,0,1-1.94-1.93V3a1.75,1.75,0,0,1,1.94-1.93h.54A1.74,1.74,0,0,1,122,3V9.34a5.68,5.68,0,0,1,5.38-3.16c4.11,0,7.27,3,7.27,8.56s-3.17,8.61-7.26,8.61A5.73,5.73,0,0,1,122,20.22Zm8.25-5.49c0-3.05-1.7-5-4.22-5s-4.17,1.88-4.17,5,1.69,5,4.21,5S130.27,17.81,130.27,14.73Z"/></g></g><g id="flask-2"><path id="Path_16" data-name="Path 16" class="cls-3" d="M3.64,17c5.58.06,5.43-2.27,9.11-3s6.47,2.25,6.47,2.25l4.42,6.93v1.88L21.36,27h-20L.64,24l.73-3.51Z"/><path id="Subtraction_2" data-name="Subtraction 2" class="cls-1" d="M21.21,28H4.07A4.13,4.13,0,0,1,.69,21.7l8-12.81v-4a2.45,2.45,0,0,1-2.34-3A2.54,2.54,0,0,1,8.82,0h7.64A2.53,2.53,0,0,1,19,1.87a2.45,2.45,0,0,1-2.33,3.05v4L24.58,21.7a4.16,4.16,0,0,1-1.22,5.66,3.92,3.92,0,0,1-2.15.64ZM3.86,18.56,1.1,23a2.63,2.63,0,0,0,.76,3.56,2.48,2.48,0,0,0,1.35.4H21.06a2.55,2.55,0,0,0,2.51-2.57,2.59,2.59,0,0,0-.4-1.39l-4.34-7h.06L17,13.09,14.77,9.42A1.57,1.57,0,0,1,14.64,9V3h1.69c.45.27.82-.09.82-.55s-.37-.82-.82-1.45H8.11c-.45.63-.82,1-.82,1.45s.37.82.82.55H9.64V3c0,4.09-.08,6.3-.13,6.38L4.84,17h.07l-1,1.58Z"/><path id="Subtraction_3" data-name="Subtraction 3" class="cls-1" d="M21.21,28H4.07A4.13,4.13,0,0,1,.69,21.7l8-12.81v-4a2.45,2.45,0,0,1-2.34-3A2.54,2.54,0,0,1,8.82,0h7.64A2.53,2.53,0,0,1,19,1.87a2.45,2.45,0,0,1-2.33,3.05v4L24.58,21.7a4.16,4.16,0,0,1-1.22,5.66,3.92,3.92,0,0,1-2.15.64ZM3.76,18.06.94,22.27a2.35,2.35,0,0,0,.78,3.35A2.64,2.64,0,0,0,3.09,26H21.31a2.5,2.5,0,0,0,2.56-2.42,2.37,2.37,0,0,0-.4-1.31l-3.26-4.86.59-.13L15.64,8.94V4h1.8l.63-2-1.3-.91L7.21.74,6.29,2.3l.92.91,1.43,1.6V8.12l-5.1,9.16.71.16-.42.63Z"/></g></g><path class="cls-1" d="M9.68,10.15l5.77.72,7.23,11.45a2.39,2.39,0,0,1-2,3.68H4.41a2.35,2.35,0,0,1-2.09-1.22,2.33,2.33,0,0,1,0-2.41L9.68,10.15M8.64,8l-8,13.34A4.4,4.4,0,0,0,4.41,28H20.66a4.4,4.4,0,0,0,3.72-6.75L16.64,9l-8-1Z"/></g></g></svg>