<svg xmlns="http://www.w3.org/2000/svg" width="276.002" height="70.322" viewBox="0 0 276.002 70.322"><defs><style>.a,.c{fill:#fff;}.a{font-size:58px;font-family:UrbaneRounded-DemiBold, Urbane Rounded;font-weight:300;}.b{fill:url(#a);}</style><linearGradient id="a" x1="-0.166" y1="1.771" x2="0.84" y2="0.5" gradientUnits="objectBoundingBox"><stop offset="0" stop-color="#0e49eb"/><stop offset="1" stop-color="#30dbce"/></linearGradient></defs><text class="a" transform="translate(76.002 59)"><tspan x="0" y="0">prolab</tspan></text><g transform="translate(0 12.304)"><path class="b" d="M28.045,21.024c11.55.131,12.712-5.006,20.315-6.506s13.39,4.657,13.39,4.657l9.127,14.341v3.876l-4.7,4H24.83l-4.066-4.916,4.066-8.554Z" transform="translate(-19.517 14.835)"/><path class="c" d="M44.939,58.018H8.519a8.494,8.494,0,0,1-7.17-13.061L18.23,18.43V10.2a5.1,5.1,0,1,1,0-10.2h17a5.1,5.1,0,0,1,0,10.2V18.43c.138.216,16.372,25.726,16.881,26.526a8.494,8.494,0,0,1-7.17,13.061ZM9.855,37.92,4.217,46.782a5.1,5.1,0,0,0,4.3,7.838H44.939a5.1,5.1,0,0,0,4.3-7.838L40.382,32.861l.119.008L36.7,27.1l-4.611-7.26a3.213,3.213,0,0,1-.265-.913V6.8h3.4a1.7,1.7,0,0,0,0-3.4h-17a1.7,1.7,0,0,0,0,3.4h3.4c0,.016,0,.168,0,.43-.073,8.09-.164,12.449-.263,12.607L11.837,34.808l.158.016-2,3.125-.136-.029Z"/><path class="c" d="M44.939,58.018H8.519a8.494,8.494,0,0,1-7.17-13.061L18.23,18.43V10.2a5.1,5.1,0,1,1,0-10.2h17a5.1,5.1,0,0,1,0,10.2V18.43c.138.216,16.372,25.726,16.881,26.526a8.494,8.494,0,0,1-7.17,13.061ZM9.855,37.92,4.217,46.782a5.1,5.1,0,0,0,4.3,7.838H44.939a5.1,5.1,0,0,0,4.3-7.838l-6.5-10.219,1.175-.276L33.593,18.747V8.357h3.6l1.269-4.263L35.853,2.172l-19.1-.664L14.913,4.78,16.751,6.7,19.6,10.067v6.961L9.42,36.287l1.418.34L9.99,37.949l-.135-.029Z"/></g></svg>